<svg width="44" height="32" viewBox="0 0 44 32" fill="none" xmlns="http://www.w3.org/2000/svg">
<path d="M0.706423 32C11.2018 31.2 18.1651 23.8 18.1651 13.4C18.1651 5.3 14.1284 0 7.87156 0C3.33028 0 0 3.2 0 7.7C0 11.7 3.02752 14.8 6.86239 14.8C7.46789 14.8 8.17431 14.7 8.88073 14.5C9.58716 14.3 10.0917 14.2 10.4954 14.2C11.5046 14.2 12.3119 15.4 12.3119 16.9C12.3119 22.2 7.56881 26.4 0.706423 27.2V32ZM26.5413 32C37.0367 31.2 44 23.9 44 13.5C44 5.3 39.9633 0 33.7064 0C29.1651 0 25.8349 3.2 25.8349 7.7C25.8349 11.7 28.8624 14.8 32.6972 14.8C33.3027 14.8 34.0092 14.7 34.7156 14.5C35.422 14.3 35.9266 14.2 36.3303 14.2C37.3395 14.2 38.1468 15.4 38.1468 16.9C38.1468 22.2 33.4037 26.4 26.5413 27.2V32Z" fill="#002A69"/>
</svg>
