<svg width="24" height="24" viewBox="0 0 24 24" fill="none" xmlns="http://www.w3.org/2000/svg">
<path d="M19.192 3H4.76786C3.80357 3 3 3.84375 3 4.80804V19.2321C3 20.1964 3.80357 21 4.76786 21H19.192C20.1562 21 21 20.1964 21 19.2321V4.80804C21 3.84375 20.1562 3 19.192 3ZM18.1473 8.98661C18.067 10.2723 17.183 12 15.4955 14.2098C13.7277 16.5 12.2009 17.625 10.9955 17.625C10.2321 17.625 9.58929 16.942 9.06696 15.5357C8.02232 11.7991 7.62054 9.58929 6.77679 9.58929C6.65625 9.58929 6.33482 9.79018 5.73214 10.192L5.12946 9.42857C6.61607 8.10268 8.0625 6.65625 8.94643 6.57589C9.95089 6.45536 10.5938 7.13839 10.8348 8.625C11.6384 13.8884 12.0402 14.692 13.5268 12.3214C14.0893 11.4375 14.3705 10.7946 14.4107 10.3527C14.5714 9.02679 13.3661 9.10714 12.5625 9.46875C13.2054 7.33929 14.4509 6.33482 16.2188 6.41518C17.5848 6.41518 18.1875 7.29911 18.1473 8.98661Z" fill="white"/>
</svg>
