<?xml version="1.0" encoding="UTF-8" standalone="no"?>
<svg
   xmlns:dc="http://purl.org/dc/elements/1.1/"
   xmlns:cc="http://creativecommons.org/ns#"
   xmlns:rdf="http://www.w3.org/1999/02/22-rdf-syntax-ns#"
   xmlns:svg="http://www.w3.org/2000/svg"
   xmlns="http://www.w3.org/2000/svg"
   xmlns:sodipodi="http://sodipodi.sourceforge.net/DTD/sodipodi-0.dtd"
   xmlns:inkscape="http://www.inkscape.org/namespaces/inkscape"
   width="392"
   height="55"
   viewBox="0 0 392 55"
   fill="none"
   version="1.1"
   id="svg25"
   sodipodi:docname="mobile-decorator-2.svg"
   inkscape:version="1.0.2-2 (e86c870879, 2021-01-15)">
  <metadata
     id="metadata29">
    <rdf:RDF>
      <cc:Work
         rdf:about="">
        <dc:format>image/svg+xml</dc:format>
        <dc:type
           rdf:resource="http://purl.org/dc/dcmitype/StillImage" />
        <dc:title />
      </cc:Work>
    </rdf:RDF>
  </metadata>
  <sodipodi:namedview
     pagecolor="#ffffff"
     bordercolor="#666666"
     borderopacity="1"
     objecttolerance="10"
     gridtolerance="10"
     guidetolerance="10"
     inkscape:pageopacity="0"
     inkscape:pageshadow="2"
     inkscape:window-width="1920"
     inkscape:window-height="1001"
     id="namedview27"
     showgrid="false"
     inkscape:zoom="2.9312462"
     inkscape:cx="10.796637"
     inkscape:cy="102.94968"
     inkscape:window-x="2391"
     inkscape:window-y="-9"
     inkscape:window-maximized="1"
     inkscape:current-layer="g4"
     inkscape:document-rotation="0" />
  <g
     filter="url(#filter0_d_2_12)"
     id="g4">
    <path
       d="m 338.06608,6.7855454 c 0.84565,-0.66733 5.30806,0.03399 6.12601,-0.30497 -8.90405,-0.96969 -17.8137,-1.7664754 -24.62153,-3.1764554 7.725,-1.7445 18.03752,0.9647754 28.45519,0.8333354 C 336.90203,2.4547254 320.53849,2.09519 309.63281,0.361715 307.34854,0.347079 305.66071,0.22681 304.12517,0.123096 259.32225,6.80346 118.32259,-9.2927764 72.432906,-7.1043764 -148.48547,-5.5054474 1.1566056,36.500873 -0.01421992,38.936892 2.851852,39.727092 15.511859,40.1931 18.302019,41.0089 14.431328,40.8172 11.309487,40.4792 7.5734297,40.2571 c 5.0200963,2.3215 16.8145653,3.1637 28.1462963,4.1073 60.043877,-12.1316 125.544864,0.6791 186.569594,1.7167 3.4691,-0.0873 6.98896,-0.0283 10.30577,0.066 56.8715,0.3643 131.15656,-2.628285 187.56314,-6.814585 C 377.46838,-11.344353 393.71889,23.286622 338.06608,6.7855454 Z M 166.17116,34.1127 c 2.51847,0.1831 8.3353,-0.3325 8.39644,0.3928 -2.50924,-0.1882 -8.31799,0.3222 -8.39644,-0.3928 z m 9.23632,0.3981 c 0.4084,-0.5814 3.66522,-0.2372 5.35189,-0.1377 -0.32995,0.3733 -3.82212,0.038 -5.37727,0.1376 z m 43.53965,8.4354 c 6.48134,-0.5269 18.53377,-0.4028 23.74376,0.3138 -10.73378,-0.1522 -14.85817,-0.0535 -23.76914,-0.314 z m 25.27238,0.3236 c 3.62599,-0.6235 15.34847,-0.3033 18.36764,0.2793 -4.48664,0.1955 -12.26125,-0.2663 -18.39303,-0.2795 z m 19.89625,0.2891 c 8.07687,-0.5063 22.32359,0.4559 33.6942,0.7374 -9.18093,-0.0171 -23.79452,-0.3194 -33.71958,-0.7376 z"
       fill="#ffffff"
       id="path2"
       sodipodi:nodetypes="cccccccccccccccccccccccccccccccccc"
       style="stroke-width:1.07409" />
  </g>
  <defs
     id="defs23">
    <filter
       id="filter0_d_2_12"
       x="0.100937"
       y="0.123096"
       width="391.765"
       height="54.053"
       filterUnits="userSpaceOnUse"
       color-interpolation-filters="sRGB">
      <feFlood
         flood-opacity="0"
         result="BackgroundImageFix"
         id="feFlood6" />
      <feColorMatrix
         in="SourceAlpha"
         type="matrix"
         values="0 0 0 0 0 0 0 0 0 0 0 0 0 0 0 0 0 0 127 0"
         result="hardAlpha"
         id="feColorMatrix8" />
      <feOffset
         dy="4"
         id="feOffset10" />
      <feGaussianBlur
         stdDeviation="2"
         id="feGaussianBlur12" />
      <feComposite
         in2="hardAlpha"
         operator="out"
         id="feComposite14" />
      <feColorMatrix
         type="matrix"
         values="0 0 0 0 0 0 0 0 0 0 0 0 0 0 0 0 0 0 0.1 0"
         id="feColorMatrix16" />
      <feBlend
         mode="normal"
         in2="BackgroundImageFix"
         result="effect1_dropShadow_2_12"
         id="feBlend18" />
      <feBlend
         mode="normal"
         in="SourceGraphic"
         in2="effect1_dropShadow_2_12"
         result="shape"
         id="feBlend20" />
    </filter>
  </defs>
</svg>
