<?xml version="1.0" encoding="UTF-8" standalone="no"?>
<svg
   xmlns:dc="http://purl.org/dc/elements/1.1/"
   xmlns:cc="http://creativecommons.org/ns#"
   xmlns:rdf="http://www.w3.org/1999/02/22-rdf-syntax-ns#"
   xmlns:svg="http://www.w3.org/2000/svg"
   xmlns="http://www.w3.org/2000/svg"
   xmlns:sodipodi="http://sodipodi.sourceforge.net/DTD/sodipodi-0.dtd"
   xmlns:inkscape="http://www.inkscape.org/namespaces/inkscape"
   fill="none"
   viewBox="0 0 392 90"
   version="1.1"
   id="svg25"
   sodipodi:docname="mobile-decorator-xx.svg"
   width="392"
   height="90"
   inkscape:version="1.0.2-2 (e86c870879, 2021-01-15)">
  <metadata
     id="metadata29">
    <rdf:RDF>
      <cc:Work
         rdf:about="">
        <dc:format>image/svg+xml</dc:format>
        <dc:type
           rdf:resource="http://purl.org/dc/dcmitype/StillImage" />
        <dc:title></dc:title>
      </cc:Work>
    </rdf:RDF>
  </metadata>
  <sodipodi:namedview
     pagecolor="#ffffff"
     bordercolor="#666666"
     borderopacity="1"
     objecttolerance="10"
     gridtolerance="10"
     guidetolerance="10"
     inkscape:pageopacity="0"
     inkscape:pageshadow="2"
     inkscape:window-width="1920"
     inkscape:window-height="1001"
     id="namedview27"
     showgrid="false"
     inkscape:showpageshadow="false"
     showborder="true"
     inkscape:zoom="2.9312462"
     inkscape:cx="216.66288"
     inkscape:cy="47.863632"
     inkscape:window-x="2391"
     inkscape:window-y="-9"
     inkscape:window-maximized="1"
     inkscape:current-layer="svg25" />
  <g
     filter="url(#a)"
     id="g4"
     transform="translate(0,33.219692)">
    <path
       fill="#ffffff"
       d="m 341.47752,-32.787612 c 0.846,-0.668 -0.818,0.339 0,0 -8.904,-0.97 -11.0057,2.021822 -17.8127,0.611822 7.725,-1.744 57.61061,-0.740759 68.02861,-0.872759 -11.124,-1.682 -77.97847,1.71067 -88.88347,-0.02233 -2.284,-0.015 -50.36864,-31.520968 -30.75323,0.443304 -44.803,6.68 -151.32142,-2.235887 -197.211422,-0.04689 C -146.07269,-31.075462 1.157,36.5 -0.014,38.936 c 2.866,0.791 15.526,1.257 18.316,2.073 -3.87,-0.192 -6.993,-0.53 -10.729,-0.752 5.02,2.322 16.815,3.164 28.147,4.107 60.044,-12.131 125.545,0.68 186.57,1.717 3.468,-0.087 6.988,-0.028 10.305,0.066 56.872,0.364 131.157,-2.628 187.563,-6.814 -42.69,-50.677 -23.02848,-55.619612 -78.68048,-72.120612 z M 166.171,34.113 c 2.519,0.183 8.335,-0.333 8.397,0.392 -2.51,-0.188 -8.318,0.323 -8.397,-0.392 z m 9.236,0.398 c 0.409,-0.582 3.666,-0.237 5.352,-0.138 -0.33,0.373 -3.822,0.038 -5.377,0.138 z m 43.54,8.435 c 6.481,-0.527 18.534,-0.403 23.744,0.314 -10.734,-0.152 -14.858,-0.053 -23.77,-0.314 z m 25.273,0.324 c 3.625,-0.624 15.348,-0.304 18.367,0.28 -4.486,0.195 -12.261,-0.267 -18.393,-0.28 z m 19.896,0.289 c 8.077,-0.506 22.323,0.456 33.694,0.737 -9.181,-0.017 -23.795,-0.32 -33.72,-0.737 z"
       id="path2"
       sodipodi:nodetypes="cccccccccccccccccccccccccccccccccc" />
  </g>
  <defs
     id="defs23">
    <filter
       id="a"
       width="391.76501"
       height="54.053001"
       x="0.101"
       y="0.123"
       color-interpolation-filters="sRGB"
       filterUnits="userSpaceOnUse">
      <feFlood
         flood-opacity="0"
         result="BackgroundImageFix"
         id="feFlood6" />
      <feColorMatrix
         in="SourceAlpha"
         result="hardAlpha"
         values="0 0 0 0 0 0 0 0 0 0 0 0 0 0 0 0 0 0 127 0"
         id="feColorMatrix8" />
      <feOffset
         dy="4"
         id="feOffset10" />
      <feGaussianBlur
         stdDeviation="2"
         id="feGaussianBlur12" />
      <feComposite
         in2="hardAlpha"
         operator="out"
         id="feComposite14" />
      <feColorMatrix
         values="0 0 0 0 0 0 0 0 0 0 0 0 0 0 0 0 0 0 0.1 0"
         id="feColorMatrix16" />
      <feBlend
         in2="BackgroundImageFix"
         result="effect1_dropShadow_2_12"
         id="feBlend18"
         mode="normal" />
      <feBlend
         in="SourceGraphic"
         in2="effect1_dropShadow_2_12"
         result="shape"
         id="feBlend20"
         mode="normal" />
    </filter>
  </defs>
  <rect
     style="fill:#ffffff;fill-opacity:1"
     id="rect856"
     width="392.32458"
     height="42.98513"
     x="0"
     y="-1.0234555" />
</svg>
