<?xml version="1.0" encoding="UTF-8" standalone="no"?>
<svg
   xmlns:dc="http://purl.org/dc/elements/1.1/"
   xmlns:cc="http://creativecommons.org/ns#"
   xmlns:rdf="http://www.w3.org/1999/02/22-rdf-syntax-ns#"
   xmlns:svg="http://www.w3.org/2000/svg"
   xmlns="http://www.w3.org/2000/svg"
   xmlns:sodipodi="http://sodipodi.sourceforge.net/DTD/sodipodi-0.dtd"
   xmlns:inkscape="http://www.inkscape.org/namespaces/inkscape"
   width="768"
   height="87"
   viewBox="0 0 768 87"
   fill="none"
   version="1.1"
   id="svg25"
   sodipodi:docname="Vector-2-finall.svg"
   inkscape:version="1.0.2-2 (e86c870879, 2021-01-15)">
  <metadata
     id="metadata29">
    <rdf:RDF>
      <cc:Work
         rdf:about="">
        <dc:format>image/svg+xml</dc:format>
        <dc:type
           rdf:resource="http://purl.org/dc/dcmitype/StillImage" />
        <dc:title></dc:title>
      </cc:Work>
    </rdf:RDF>
  </metadata>
  <sodipodi:namedview
     pagecolor="#ffffff"
     bordercolor="#666666"
     borderopacity="1"
     objecttolerance="10"
     gridtolerance="10"
     guidetolerance="10"
     inkscape:pageopacity="0"
     inkscape:pageshadow="2"
     inkscape:window-width="2400"
     inkscape:window-height="1271"
     id="namedview27"
     showgrid="false"
     inkscape:zoom="2.9923139"
     inkscape:cx="104.54758"
     inkscape:cy="70.372311"
     inkscape:window-x="-9"
     inkscape:window-y="-9"
     inkscape:window-maximized="1"
     inkscape:current-layer="g4" />
  <g
     filter="url(#filter0_d_9_441)"
     id="g4">
    <path
       fill-rule="evenodd"
       clip-rule="evenodd"
       d="m 1540.53,-21.2779 7.91,-0.7405 c 37.18,0.0605 75.05,-1.6169 110.98,-4.9154 7.4,-0.5747 14.35,-1.4572 20.41,-2.591 -27.63,2.7587 -56.57,4.6301 -85.76,5.546 -4.59,-0.7003 -18.25,0.3835 -28.08,0.6212 -7.02,0.2053 -9.51,-0.8982 -17.66,0.1494 1.24,-1.1041 -11.09,0.6083 -10.09,-0.5389 -4.49,1.2993 -6.11,-0.0298 -9.53,0.0033 -9.56,0.0795 -29.5,2.1731 -29.83,0.4222 -8.76,0.2564 -13.71,0.5515 -20.78,0.2411 -2.81,0.0482 -5.6,0.2909 -7.92,0.6905 -4.56,0.0584 -0.06,-2.0674 -7.95,-0.4765 l -0.7,-0.964 c -13.12,0.4257 -27.11,-0.0997 -39.69,-0.4572 -9.54,-0.2801 -22.21,0.5746 -29.29,0.0725 l -5.11,1.5847 3.37,-1.5253 c -6.05,0.8278 -9.45,-0.0407 -13.7,-0.3 5.45,-0.8853 14.22,-0.8833 23.03,-1.0158 17.89,-0.2981 33.27,0.6951 53.14,-1.1877 3.15,1.9352 30.19,-1.6175 31.76,0.5475 l 5.97,-0.8171 c 10.75,0.5501 22.37,0.4804 33.72,-0.2025 -3.15,-0.7419 -11.43,-0.2327 -17.26,-0.2789 -11.36,-0.0767 -22.98,-0.1036 -35.32,0.0238 -29.64,0.3163 -61.16,-0.3965 -95.95,-0.0377 -19.01,0.2139 -40.8,1.2521 -56.39,0.1063 10.63,-1.5792 22.79,-0.9505 29.78,-0.7962 26.15,-2.9176 40.63,0.0042 67.4,-2.3889 -14.03,-0.5826 -36.43,0.0312 -53.25,0.273 -10.75,0.156 -20.49,-0.2934 -31.55,-0.1531 -16.07,0.1781 -34.1,0.9977 -50.88,1.2383 -29.95,0.3757 -60.54,0.6865 -92.43,1.3692 -44.81,0.9857 -101.58,3.0888 -149.21,4.1736 -17.53,0.396 -35.36,1.2932 -50.987,0.1736 l -5.506,0.3863 c -2.939,-0.0976 -3.987,-0.7176 -6.294,-0.9421 -12.875,-0.6662 -26.749,-0.1185 -39.688,-0.1988 -45.442,-0.2139 -89.234,-3.9384 -139.7,-2.0948 22.391,1.8478 58.949,-0.7152 70.98,3.9636 -6.599,2.5373 -26.537,0.4009 -40.548,1.7619 -1.915,-1.8628 -15.871,0.1056 -18.573,-1.5173 -5.732,0.8351 -11.115,-0.1253 -16.731,0.5479 5.846,1.9481 24.121,-0.2385 28.39,2.1144 -42.239,2.3204 -96.234,2.8156 -142.449,3.4084 -10.789,0.1572 -20.29,1.0108 -30.31,0.2444 1.544,-1.6219 19.111,-0.5591 19.338,-2.4512 -24.745,-0.8528 -64.001,1.7056 -91.781,3.119 -3.247,0.2452 -3.4,-1.0351 -6.413,-0.9386 -28.045,1.8717 -42.748,1.1255 -63.437,2.0478 l -7.419,-1.3847 c 5.481,-0.738 10.353,-1.6832 14.33,-2.7803 6.74,-0.1972 19.422,-0.8352 21.246,-2.3569 -37.354,2.4778 -96.756,5.5339 -132.578,8.8845 -48.653,4.36015 -99.302,8.28639 -144.171,13.13649 L 243.481,3.04587 C 88.3025,6.75162 -68.2887,11.0744 -225.227,15.741 l 1.472,0.1238 c -3.744,-0.0065 -7.524,0.0483 -11.306,0.1639 l -18.08,0.529 c -16.432,0.7804 -32.402,2.2286 -46.989,4.2613 7.766,1.0326 54.236,-1.8287 61.33,-0.7181 -0.917,1.32 -64.013,2.7489 -46.189,3.0199 19.071,-0.6247 32.006,-0.6444 38.175,0.0094 -24.722,2.3732 -51.003,3.5113 -76.617,3.3178 -5.423,1.9774 12.939,1.6071 31.066,1.2937 21.839,-3.9177 89.208,-1.4504 99.853,-4.031 -2.374,1.738 -29.5,2.3814 -30.921,4.1583 27.766,-0.4619 22.953,-2.3401 46.389,-2.959 -24.83,3.3628 32.814,-0.1258 30.659,2.3651 -13.69,2.9701 -37.891,0.2158 -61.088,2.3211 -1.351,1.4245 16.649,0.8311 22.58,1.5336 5.334,-0.8652 16.745,-1.5328 30.78,-2.0101 4.011,1.6179 -26.449,2.2171 -7.302,2.9584 23.207,-0.2702 9.506,-2.1719 38.354,-2.1984 -17.01,3.4594 3.238,0.9148 23.2934,1.4793 -22.6894,1.7985 -51.1014,3.3389 -61.5154,5.6458 22.29,-0.4185 34.965,0.1284 38.456,1.5947 -41.297,0.4407 -81.146,3.1333 -100.297,0.7569 -3.086,3.3106 -79.268,3.6123 -92.286,6.5127 43.977,-1.1782 119.972,-5.4956 200.369,-6.9551 -0.038,-1.4255 -4.447,-3.0569 15.3766,-3.7119 21.3152,0.2106 44.1325,-1.2912 66.9222,-2.3251 -5.5733,0.8138 -11.1069,1.6265 -16.6402,2.4558 -12.4073,0.4965 -26.4039,0.9227 -42.665,1.2482 -10.0066,1.2189 -20.5306,2.4111 -15.0446,4.2612 -11.226,0.1366 -13.221,-0.2556 -22.998,0.6729 -2.667,1.1709 10.062,0.8318 15.152,1.2252 -65.975,3.5988 -153.43,6.7415 -192.43,9.9849 37.153,-1.087 56.402,-2.4344 77.24,-2.2598 -5.591,1.6152 -35.416,2.2292 -38.547,3.8559 30.284,0.2319 58.402,-0.4489 76.91,-2.7841 -2.685,-0.981 -25.537,-3.7413 15.321,-4.2777 -23.732,2.8802 33.917,2.5034 7.735,5.8056 4.754,-0.3059 9.429,-0.5845 14.065,-0.8536 -5.484,1.1699 -11.364,2.3931 -16.412,3.5503 -17.309,0.6334 -34.637,0.8068 -51.574,0.5161 -3.074,2.2591 29.431,0.966 51.21,0.7209 -4.85,1.1514 -19.753,3.2727 -15.54,3.5165 3.957,-0.3911 4.618,-0.8943 9.405,-1.4265 3.78,-0.1219 7.559,-0.1823 11.305,-0.1806 -8.241,0.4664 -17.515,0.8963 -17.811,1.6975 23.486,-0.2116 29.572,-1.1489 33.552,-2.183 14.775,-0.9996 35.663,-1.9194 39.126,-1.5368 l 7.92,-0.6322 c -0.591,0.1591 -0.589,0.2675 -4.626,0.686 6.543,-0.1915 8.6154,0.14 19.823,-0.6968 -6.8048,0.7664 13.9265,-0.0904 31.0474,-0.9084 5.9681,0.5846 7.9753,1.4353 4.2727,2.4613 -1.9521,1.1918 -20.7489,1.6833 -23.1772,2.8723 91.115639,13.047897 67.2187035,-10.121859 0.1471,5.4769 24.5287,1.6601 60.3553,-3.0339 92.4817,-2.1718 -1.4169,1.9103 -40.8913,2.2893 -45.9219,4.105 22.92208,-0.5371 46.8659,-2.9312 53.7417,-1.055 -43.52,4.869 -144.4135,4.0999 -177.0195,9.0084 24.443,1.4373 51.737,-3.2824 69.3897,-2.0301 2.1927,0.378 0.0202,0.7669 -3.3428,1.1406 3.3704,-0.0986 6.5038,-0.1486 9.7158,-0.2342 3.6385,-0.4568 8.2713,-0.8427 9.2097,-1.3623 C -27.1075,72.7661 0.992534,71.4684 24.4435,71.4164 14.4991,72.0077 7.21191,72.5296 -1.89919,73.1215 92.163,70.7032 186.59,68.0935 281.383,65.2924 l 13.719,-0.4014 c 3.462,0.3492 6.885,0.7246 10.306,1.05 14.017,1.469 28.915,2.6016 44.456,3.3797 21.017,0.9369 42.079,0.5793 64.263,0.6227 4.325,-0.0014 7.209,-0.4946 11.535,-0.4709 8.176,0.0611 18.866,0.6077 24.842,0.0073 5.07,1.1365 8.546,0.5259 14.824,0.8594 l 5.733,0.7083 c 4.616,0.3315 9.339,0.611 14.15,0.8375 7.236,0.5058 14.518,1.2438 21.709,1.584 16.49,0.8024 30.936,0.8719 46.621,1.2557 23.891,0.6529 48.358,0.7757 73.026,0.3663 -19.506,-0.8142 -40.612,-0.6222 -58.477,-0.8921 -4.202,0.0044 -8.356,-0.0609 -12.425,-0.1954 l -4.226,-0.7107 -1.771,0.519 c -5.954,-0.0594 -13.386,-0.4426 -20.216,-0.6182 l -7.316,-0.5702 c -5.716,-0.0497 -10.462,0.5397 -17.231,-0.3301 16.105,-0.2126 30.053,0.5056 43.654,0.1327 l 3.195,0.7408 2.882,-0.5265 5.292,0.5376 1.693,-0.5334 c 3.415,0.092 6.731,0.9627 10.401,0.1796 15.896,0.8614 26.467,-0.0569 46.055,0.8718 l 3.68,-0.3914 c 8.734,0.4125 17.751,0.6377 26.923,0.6724 10.236,-0.0659 21.629,0.068 31.189,-0.0782 7.021,-0.1053 15.017,0.6785 24.204,-0.0491 l 2.521,0.7605 c 14.138,-1.0644 33.454,0.0474 47.587,-1.192 l -6.623,0.1521 c -5.133,-0.5089 -10.475,0.0144 -15.205,-0.2477 l -2.038,-0.5243 c -2.784,-0.2439 -8.336,1.3952 -11.507,0.053 -3.142,1.2099 -7.938,-0.0848 -11.898,0.2396 l 1.284,-0.9636 c 2.931,-0.1942 2.676,0.6392 4.86,0.6921 7.195,-0.9864 15.86,-0.464 23.989,-0.7018 6.346,-0.1356 14.483,-0.015 18.252,-1.5185 -5.01,-0.3874 -19.021,0.982 -18.813,-1.6104 14.096,0.3051 31.312,0.0434 41.518,1.8138 13.217,0.0972 26.75,-1.3082 37.959,-0.6267 l 2.206,-0.6152 c 35.173,-0.9539 76.086,-3.8946 109.524,-4.4307 l 3.713,-0.6259 c 15.857,-0.6141 35.667,-1.7693 51.541,-1.7332 -11.072,2.9186 -12.592,-0.4658 -23.08,2.0602 -2.317,-0.5996 -4.524,-0.0011 -8.935,-0.2392 l -3.663,0.9916 -3.702,-0.409 c -3.955,0.4661 -5.072,0.2986 -8.546,0.9508 -8.241,0.4998 -9.827,-0.9472 -17.05,0.4989 7.694,0.2911 15.755,0.2813 23.808,-0.0292 l 7.6,-0.7646 c 7.926,-0.3904 15.149,-0.3348 23.423,-1.0524 l 1.604,0.6205 c 4.498,-0.8156 8.246,-1.8041 10.994,-2.8995 5.28,0.1041 12.357,-0.8788 16.304,-0.3184 33.31,-2.0761 62.86,-1.3553 91.7,-1.5067 9.52,-0.0534 27.76,-0.8121 33.63,0.4095 l 3.59,-0.5807 c 1.57,0.8301 8.73,0.1032 13.22,0.1472 4.48,0.044 7.95,0.6016 13.18,0.4485 l 4.92,-0.2772 c 12.74,0.0027 20.68,1.8559 38.76,-0.1831 l -4.99,-1.2221 c -16.72,-0.4485 -33.08,-1.1718 -48.95,-2.1638 l -4.35,0.4361 -9.1,-0.568 c 12.9,0.0648 32.84,-0.7354 51.04,-1.0762 -8.44,-2.6479 -39.21,-0.1209 -60.24,-0.173 3.5,-1.2203 7.92,-0.5321 11.32,-0.7986 -3.99,-0.9094 -12.96,-1.014 -23.16,-1.0326 l 1.96,-1.0417 c -8.66,-0.1973 -19.14,1.1855 -26.45,0.8738 l 3.95,-0.7746 c -12.92,-1.0818 -34.68,0.1303 -49.92,-0.1328 -4.69,-0.0632 -10.98,0.4214 -16.9,0.4942 -25.743,0.2444 -54.299,0.8128 -81.368,0.5953 l -1.186,-1.3085 c -6.778,0.3068 -14.308,0.6272 -18.099,-0.1712 42.773,-3.1286 91.173,-3.7352 140.003,-4.1546 38.41,-0.3393 74.03,0.7708 110.39,-0.3847 6.9,-0.2018 14.93,-0.9875 20.77,-0.983 20.12,-0.0046 37.29,1.2282 57.6,0.9343 -13.88,-1.204 -32.65,-1.2138 -51.61,-1.0678 -13.92,-1.0945 -41.91,0.0496 -56.32,-1.6145 -1.45,0.2222 -3.09,0.375 -4.77,0.446 -1.69,0.0711 -3.38,0.0585 -4.94,-0.0367 2.27,-1.1344 -3.23,-0.8481 -1.08,-1.9539 -6.31,-0.0906 -8.98,-0.4714 -16.77,0.5991 -3.97,0.1827 2.11,-1.0547 -1.73,-0.7837 l 8.16,-2.0241 6.55,-0.008 -2.4,-0.7641 c 2.88,-0.4681 6.78,-0.1984 9.98,-0.434 l 0.98,-0.6793 c 10.68,-1.4052 19.28,-0.0886 27.56,-0.7145 2.9,1.542 19.85,0.2953 28.52,0.9343 1.4,0.1887 3.01,0.3095 4.73,0.3552 1.72,0.0458 3.52,0.0155 5.27,-0.089 5.12,-0.233 12.25,-0.7003 18.51,-0.9669 5.03,-0.2057 8.61,0.0484 12.73,-0.1306 7.59,-0.1793 15.11,-0.118 22.31,0.1816 l 3.94,-1.108 c 20.55,-0.1391 40.91,0.0658 60.89,0.613 8.61,0.165 14.03,1.0576 23.28,0.9874 l 5.51,-0.2779 c 12.74,0.2111 20.76,1.7452 38.79,0.8423 3.57,-0.1878 10.54,-0.7588 15.1,-0.5587 2.76,-0.8148 1.56,-1.0218 6.14,-2.1317 l -6.05,1.0111 0.49,-0.957 c -6.73,-0.1809 -13.57,-0.2595 -20.48,-0.2351 -4.8,0.0654 -14.54,-0.4924 -23.83,-0.6794 -43.43,-0.915 -89.78,-2.3288 -135.83,-2.8338 l -3.14,-0.4252 c -6.93,0.1834 -13.85,0.2461 -20.67,0.1876 -8.97,-0.0546 -19.84,0.0715 -26.96,-0.3044 l -3.19,-0.7408 c -8.19,-0.5947 -20.36,0.0533 -31.11,0.1676 -9.16,0.1096 -18.56,0.2678 -29.63,0.308 -6.91,0.0351 -14.36,0.1449 -21.5,0.237 48.08,-2.3024 96.18,-4.6412 144.29,-7.0165 -5.64,-0.0937 -12.26,-0.0334 -17.66,-0.1673 10.74,-0.3144 21.81,-0.413 32.8,-0.576 l 112.31,-5.6051 c -10,0.1354 -19.96,0.1622 -29.84,0.0804 2.16,-0.8391 12.7,-1.2894 15.82,-2.1313 -52.32,2.3066 -43.42,-1.4663 -77.17,-1.0126 52.1,-3.026 129.25,0.123 177.31,-4.0863 -77.8,0.8327 -139.12,3.361 -146.87,-1.7015 l 1.62,-0.1059 c 4.57,-0.21 9.17,-0.2969 13.68,-0.2586 l -5.18,0.6772 c 4.44,-0.1966 15.45,-1.1443 11.92,0.544 l 6.64,-1.2786 c 4.87,1.2506 19.19,-0.3031 20.7,0.9878 31.2,-0.913 54.77,0.2664 81.84,0.684 l 6.3,-0.5596 3.66,0.4435 c 15.85,-0.8225 32.74,-2.86008 46.82,-3.23023 -5.22,-0.79003 -18.2,0.53248 -26.93,0.6043 -7.42,0.10023 -12.88,-0.80789 -20.59,-1.06634 -4.92,-0.13958 -11.89,0.23131 -16.7,0.15494 l -6.96,-0.52224 C 1412.07,8.0762 1405.4,8.01268 1398.97,7.92552 l 2.57,-0.2838 -11.38,0.17453 c -14.65,-0.15547 -29.65,-0.29216 -45.09,-0.4411 l -1.12,-0.00919 c 56.78,-2.0447 118.97,-3.03843 157.9,-5.9294 -66.5,1.67869 -153.48,3.23906 -185.31,3.23578 6.77,-2.11688 70.28,-4.450472 84.84,-3.07443 -9.36,0.34881 -18.12,0.73021 -15.36,1.55881 69.11,-3.607064 145.38,-3.735971 207.97,-4.9747 -45.89,-0.67276 -92.26,-0.78393 -138.9,-0.33296 -2.63,1.06974 11.5,1.07357 0.04,1.667256 -41.85,0.4486087 -87.39,-3.574976 -131.17,0.592427 11.52,-2.439483 -20.97,-0.471223 -15.18,-2.325683 39.38,-1.0019 89.99,-0.25521 123.7,-2.55123 -23.51,-0.58869 -65.77,0.80635 -85.09,-0.21375 -2.25,-1.1688 1.69,-2.07674 15.33,-2.60919 l 1.74,-0.05103 c -95.4,-0.39563 -192.22,-0.48871 -290.44,-0.27918 3.69,-0.20792 7.37,-0.36581 10.66,-0.48711 14.79,-0.52441 30.58,-0.75269 46.48,-1.25123 40.99,-1.26624 90.73,-2.28744 128.09,-2.91344 14.54,-0.2013 29.14,-0.6871 43.61,-1.4512 -22.23,-0.6091 -46.37,0.6393 -72.25,0.4453 29.2,-1.2038 58.51,-1.6495 87.27,-1.3268 l -1.68,0.8252 c 3.42,-1.0763 14.92,-1.2126 18.83,-0.451 73.81,-1.5503 133.54,0.0561 194.43,-0.5992 3.35,-0.343 6.6,-0.7366 9.73,-1.1774 20.66,0.7722 47.96,-0.6356 79.28,-3.2705 -10.34,-0.6571 -31.15,1.6954 -43.61,1.4512 9.06,-1.016 15.45,-0.8026 26.49,-1.9015 -11.08,-0.51 -30.05,0.7376 -42.12,0.7735 -16.19,0.0398 -36.48,1.0672 -48.88,0.4121 -4.88,-0.2491 -7.37,-1.0691 -13.16,-1.0415 18.01,-1.6198 31.89,-2.0259 43.34,-1.393 z M 996.789,58.2193 c 11.141,-0.2176 24.731,-1.1241 30.241,0.1247 -14.84,1.1428 -30.165,1.7604 -45.308,1.8261 -3.967,0.041 -10.626,0.3109 -9.627,-0.8947 8.846,-1.6103 16.524,-0.8839 24.695,-1.0395 z M 1125.73,40.7981 c -1.54,0.2232 -3.33,0.3369 -5.06,0.3224 -1.73,-0.0146 -3.31,-0.1566 -4.47,-0.4024 z M 333.728,65.4629 c 4.869,-0.4595 8.555,-0.6591 19.273,-0.4888 l 2.479,0.6867 3.975,0.2508 c -8.737,-0.0305 -17.382,-0.1788 -25.885,-0.4441 z m 61.812,0.9447 c -4.711,-0.1508 -9.533,-0.208 -14.409,-0.1708 1.335,0.9537 -3.262,1.18 -9.313,0.4644 1.817,-0.2951 9.264,0.6717 6.975,-0.3209 l -5.371,-0.5103 -1.897,0.2724 -3.472,-0.7327 c -2.29,0.1637 -4.654,0.2271 -6.938,0.1862 -2.285,-0.041 -4.439,-0.1854 -6.323,-0.4239 12.821,0.1088 27.338,-0.1574 42.113,0.328 l -5.467,0.3519 z m 34.198,-0.3164 -3.038,-0.8289 2.381,1.4822 -3.021,-0.1786 -1.566,-0.6967 -2.643,0.6112 -3.232,-0.698 0.024,0.9087 -2.086,-0.8233 -1.851,0.488 c -3.387,-0.4933 -3.018,-0.0286 -5.477,0.01 l -4.824,-0.8516 2.36,0.6818 -3.452,0.0342 0.701,-0.471 -4.89,-0.3491 c 2.648,-0.4112 9.641,-0.0736 13.215,0.0221 l 1.736,-0.3595 c 5.356,-0.0565 12.348,0.2228 18.179,0.1439 5.831,-0.0788 11.519,-1.0628 19.205,-0.0696 -9.041,0.2478 -16.303,0.2434 -21.76,0.9453 z m 26.502,-0.2248 0.336,0.6994 c -5.175,-0.5828 -7.19,-0.2903 -13.067,-0.452 1.365,-0.8743 9.564,0.0705 10.251,-0.9757 l 5.837,0.1712 1.167,0.5749 z m 31.825,2.9233 -0.013,-0.4501 0.365,0.298 2.941,0.1809 z m 102.472,3.4009 -9.845,-0.1374 c 1.012,-0.7471 5.9,-0.473 9.469,-0.569 z m 25.879,0.194 -0.015,-0.5419 2.95,0.5061 z m 6.114,0.1381 -2.906,-0.3404 3.957,-0.4078 z m 69.38,0.5731 c -0.277,-1.4435 3.001,-0.555 5.093,-0.9832 l 0.417,0.7386 z m 42.636,-3.7919 -3.449,0.1009 c 1.279,-1.1553 -2.283,-0.8175 -1.713,-1.7602 l 5.785,-0.3111 z m 150.886,-8.4273 -2.974,0.087 3.594,-0.6141 z m 62.874,0.6132 c -8.25,0.3649 -16.543,0.5516 -24.747,0.5572 -7.418,0.1086 -16.051,0.7783 -19.836,0.2216 l 6.802,-0.8914 c 10.847,-0.9681 19.444,0.0067 28.523,-0.3006 4.481,-0.1228 8.911,-0.6695 9.338,0.4359 z m -8.446,-4.1829 c 2.539,-0.0159 6.648,-0.67 6.992,0.3127 -13.109,0.9758 -34.723,1.458 -50.429,1.7674 l 0.686,-1.0629 c -7.681,0.2513 -15.361,0.3447 -22.929,0.2787 -3.652,-0.0183 -8.473,-0.7783 -12.089,0.5038 3.605,1.2461 15.33,0.4859 18.895,1.7248 -12.249,0.4585 -22.306,-0.1817 -33.812,-0.112 -84.23624,-0.503957 -81.66678,-1.026506 -6.838,-1.894 12.691,-0.3045 27.73,-1.8208 40.197,-1.5765 6.312,0.1074 11.446,0.6496 17.95,0.526 14.756,-0.2481 28.484,-0.2994 41.457,-0.4453 z m 23.422,-8.5108 7.926,-0.3821 c -3.121,0.5168 -4.203,0.1063 -7.687,0.4251 z m 54.268,-2.0133 c 4.57,0.075 10.58,-0.8349 11.91,0.0188 -3.1,-0.0263 -9.32,0.4143 -11.79,0.0444 z m 13.76,-0.3609 c 3.38,-0.0319 5.98,-0.4919 7.26,-0.0372 -2.89,-0.0404 -7.12,0.6256 -7.14,0.1004 z m 21.31,-0.2478 c 1.45,-0.3397 3.36,-0.5733 5.39,-0.6586 2.03,-0.0853 4.04,-0.0168 5.67,0.1932 -4.19,0.6982 -6.34,0.4357 -10.94,0.5286 z m 21.02,-0.3981 6.78,-0.1984 c -1.9,0.4308 -3.42,-0.0169 -6.66,0.2616 z m 63.12,0.9981 c 7.54,-0.4121 15.2,-0.379 22.11,0.0958 -3.59,0.8892 -8.63,0.8114 -12.36,0.8121 -7.94,-0.0014 -18.02,0.0348 -20.22,-0.6516 5.06,-0.8321 7.57,-0.4133 10.51,-0.2157 z m -10.63,-1.3825 c -4.18,-0.4367 -15.51,0.4536 -18.9,-0.1564 l 2.06,-0.3937 c 3.07,0.7609 16.09,-0.6294 16.84,0.5918 z m -17.62,-4.4902 -9.84,0.1043 c 2.98,0.0631 8.56,-0.3839 9.88,-0.0638 z m -2.15,4.1926 c -3.15,0.8681 -8.64,0.7031 -9.32,0.2726 3.76,-0.4436 5.28,0.0375 9.24,-0.2286 z M 896.468,-20.2299 c -6.503,0.1902 -25.376,0.8258 -32.352,-0.3633 9.095,-1.1838 21.839,0.479 32.392,0.4038 z m -186.191,14.79129 -25.27,0.2805 c 8.287,-0.24246 16.851,-0.53473 26.249,-0.76798 z m -860.275,63.66281 1.26,-0.3372 3.405,-0.3082 z m 876.897,-63.84875 -1.322,-0.43689 -1.534,0.47039 -5.356,0.05657 -3.535,-0.1385 0.005,0.20006 -2.063,0.01866 -0.009,-0.32513 9.934,-1.00809 c 12.722,0.88755 25.56,-1.32347 40.063,-0.60483 3.192,-0.84423 16.199,-1.16638 20.258,-0.7095 23.108,-1.00978 61.769,-3.60919 86.488,-2.25499 -40.68,1.2819 -82.418,3.04531 -120.752,4.49222 z m 429.541,-6.78545 -4.75,0.556 0.78,-0.6151 z m 58.87,-0.8713 c 3.93,-1.3664 12.43,-1.0228 13.32,-0.2397 -5.35,0.24 -7.46,-0.132 -13.29,0.2136 z m 10.75,-8.7159 c 2.59,-1.3104 13.03,-1.2153 11.11,-0.1415 -4.21,-0.1521 -7.57,0.4467 -11.07,0.1153 z m 136.25,-2.276 c 4.71,-0.5109 9.89,-0.6946 14.71,-0.5221 l -1.33,0.6314 c -5.38,0.6079 -13.32,0.6315 -13.34,-0.1354 z m 72.35,4.8328 c 4.34,-0.8896 9.94,-1.4269 15.6,-1.4973 5.65,-0.0703 10.92,0.3318 14.67,1.1207 -8.66,1.096 -25.92,1.1671 -30.23,0.3504 z m 131,1.6654 c -8.96,0.2621 -15.41,0.768 -18.13,-0.0368 4.05,0.3819 18.42,-1.0979 18.17,0.0106 z"
       fill="#ffffff"
       id="path2"
       sodipodi:nodetypes="ccccccccccccccccccccccccccccccccccccccccccccccccccccccccccccccccccccccccccccccccccccccccccccccccccccccccccccccccccccccccccccccccccccccccccccccccccccccccccccccccccccccccccccccccccccccccccscccccccccccccccccccccccccccccccccccccscccccccccccccccccccccccccccccccccccccccccccccccccccccccccccccccccccccccccccccccccccccccccsccccccccccccccccccccccccccccccccccccccccccccccccccccccccccccccccccccccccccccccccccccccccccccccccccccccccccccccccsccccccccccccccccccccccccccccccccccccccccccccccccccccccccccccccccccccccsccccccc" />
  </g>
  <defs
     id="defs23">
    <filter
       id="filter0_d_9_441"
       x="-334.397"
       y="-40.7467"
       width="2024.23"
       height="127.054"
       filterUnits="userSpaceOnUse"
       color-interpolation-filters="sRGB">
      <feFlood
         flood-opacity="0"
         result="BackgroundImageFix"
         id="feFlood6" />
      <feColorMatrix
         in="SourceAlpha"
         type="matrix"
         values="0 0 0 0 0 0 0 0 0 0 0 0 0 0 0 0 0 0 127 0"
         result="hardAlpha"
         id="feColorMatrix8" />
      <feOffset
         id="feOffset10" />
      <feGaussianBlur
         stdDeviation="5"
         id="feGaussianBlur12" />
      <feComposite
         in2="hardAlpha"
         operator="out"
         id="feComposite14" />
      <feColorMatrix
         type="matrix"
         values="0 0 0 0 0 0 0 0 0 0 0 0 0 0 0 0 0 0 0.1 0"
         id="feColorMatrix16" />
      <feBlend
         mode="normal"
         in2="BackgroundImageFix"
         result="effect1_dropShadow_9_441"
         id="feBlend18" />
      <feBlend
         mode="normal"
         in="SourceGraphic"
         in2="effect1_dropShadow_9_441"
         result="shape"
         id="feBlend20" />
    </filter>
  </defs>
</svg>
