<?xml version="1.0" encoding="utf-8"?>
<!-- Generator: Adobe Illustrator 19.0.0, SVG Export Plug-In . SVG Version: 6.00 Build 0)  -->
<svg version="1.1" id="Layer_1" xmlns="http://www.w3.org/2000/svg" xmlns:xlink="http://www.w3.org/1999/xlink" x="0px" y="0px"
	 viewBox="-799 492 320 22" style="enable-background:new -799 492 320 22;" xml:space="preserve">
<style type="text/css">
	.st0{fill:#FFFFFF;}
</style>
<path class="st0" d="M-619.7,507.5c-0.9-0.1-1.5-0.2-2-0.2l-0.3,0.3c0.4,0,0.7,0.2,1.1,0.3l0.9,0.1c0.1,0,0.3-0.1,0.4-0.2
	C-619.6,507.7-619.7,507.6-619.7,507.5z M-620.9,507.9c0.3,0.1,0.6,0.2,0.9,0.1L-620.9,507.9z M-621.4,507l-0.3,0.3
	c0.5,0,1.1,0.1,2,0.2C-620,506.9-621.1,507.5-621.4,507z M-619.7,507.5c-0.3-0.6-1.4,0.1-1.7-0.5l-0.3,0.3c-1.3-0.1-1.2,0.1-1.3,0.3
	l2.1,0.3c0.3,0.1,0.6,0.2,0.9,0.1l44.6,6.1h2.6C-602.9,509.8-614.9,508-619.7,507.5z M-619.7,507.5c-0.9-0.1-1.5-0.2-2-0.2
	c-1.3-0.1-1.2,0.1-1.3,0.3l2.1,0.3l0.9,0.1l44.6,6.1h2.6C-602.9,509.8-614.9,508-619.7,507.5z"/>
<path class="st0" d="M-518.1,496.2c0.7,0.3,1.3,0.8,1.8,1.4c0.5-0.6,1.1,0.5,1.7,0.5c1.3,0.1,2.6,0,3.9,0c1.4,0,2.8,0.1,4.1,0.3
	l0.4-0.3l1.4,0.3c1.3,0.2,2.5,0.6,3.5,0.6c0.6,0,1.2,0,1.8,0c2-0.1,3.4,0.5,5.5,0.3l-1-0.8c0.1-1.1,0.9,0,1.2-0.6h1.8l0.4,0.3
	l0.6-0.3h1.4c0.8,0.2,1.2,0.9,2,1.1c1.8,0,3.5,0.2,5.3,0.5h2.1l0.8,0.3h-1c-3.5-0.2-7-0.1-10.4,0c-0.8-0.1-1.6-0.1-2.4,0
	c-2.6,0.1-5.2,0-7.8-0.3c-2-0.3-6.1-0.1-8.2-0.3l-1.8-0.3l-0.8,0.3c-1.7-0.2-3.3,0.1-4.9,0.8c0.9,0.7,2.3,0.6,3.7,0.6
	c0.9-0.1-0.4,1.3,0.6,1.4c1,0.2,1.5-0.3,2.3-0.3c9.2,0.5,18.7,1,28.5,1.1c0.8,0,1.6,0,2.5,0v4.1c-1.1,0-2.3,0-3.5-0.1
	c-0.7,0.3-1.4,0.5-2.1,0.6l-1,1.1c-1-0.5-1.9,0.3-2.5,0.3c2.7,0.9,5.9,0.8,9.1,0.7v4.4h-92.7c-30.2-4.3-42.1-6-46.9-6.5
	c-0.3-0.6-1.4,0.1-1.7-0.5l-0.3,0.3c-1.3-0.1-1.2,0.1-1.3,0.3l2.1,0.3c0.3,0.1,0.6,0.2,0.9,0.1l44.6,6.1H-799c0.3-2,0.8-4,1.1-5.9
	c2.7-5,8-6.4,11.5-10.2c0.9,0,1.5-0.5,2.4-0.6c3.8-2.7,8.6-2.8,13.1-3.6c9.9-0.5,17.4-0.3,26.2,1.9c6.9,0.7,15.3,1.1,22.1,2.8
	c7.2,1.3,14.8,2.4,21.9,3c2.6-0.4,5.3,0.3,7.8,0.3c1.7,0,3.5-0.6,5.2-0.3c0.8-0.2,0.9,0.8,1.6,0.8l1.4,0.3c1.8-0.2,3.9,0.2,6.1,0.3
	c6.9,0.2,14.8,0.1,21.3,1c-0.7,1.1-1.8,0.3-2.8,0.3c-2.1-0.1-4.5,0-6.6,0l-1.4-0.3c-3.8,0-8.3,0.1-13.1,0c0.3,1.5,1.7,0.3,2.4,0.8
	c1,0,2.1,0.1,3.1,0.3c2.6-0.5,6.3,0.5,10.2,0.6c1.3,0,2.4-0.2,4.1,0c1.7,0.2,3.5-0.4,4.9,0.6c3.5-0.6,7-0.4,10.4,0.5
	c-2.2,0.3-3.8,1.4-5.5,2.5c1.3,0.9,3.1,0.3,4.1-0.5l1.8-0.5c0.7-0.1,1.5-0.3,2.2-0.6c-0.5-0.5-1.4-0.5-2.4-0.5l1.2-0.3
	c1-0.1,2.1-1,3.1-1.1c1-0.2,2.2,0.1,3.3,0c6.3-0.4,14.8,0.5,21.1,0.8l1-0.3c2.1-2,5-2.8,7.4-4.4c3.9-0.8,7.9-1.3,11.3-2.8
	c0.7-0.5,1.2-1.5,1.9-1.9c1.8-0.5,3.6-1,5.3-1.7c1.4-0.9,2.7-1.1,4.5-1.9c2.7,0.1,5.4-0.5,8-0.5c2.3,0,4.6,0.6,7,0.8
	c2.9,0.2,5.9,0,8.8,0.6c1.1-0.4,2.7-0.2,3.7-0.6c2.7,0.5,5,0,7,0s4.2,0.4,7,0.3c2.2-0.1,4.2-0.1,7.2-0.3c1.8-0.3,3.7-0.2,5.5,0.3
	l0.8-0.3c1.2,0.1,2.4,0.2,3.5,0.3c7.1,0.4,13.3,0.2,20.5,0.3c6.5,0.1,12.5,0.5,19,0.5c2.9,0,5.7,0.1,8.5,0.2v1.4
	c-7.2,0-14.2,0.2-21-0.3c-2-0.1-3.9,0.3-5.9,0.3C-510,496.2-514.3,495.6-518.1,496.2z"/>
<path class="st0" d="M-572.8,514h-2.6L-620,508c-0.3,0.1-0.6,0-0.9-0.1l-2.1-0.3c0.1-0.2,0-0.4,1.3-0.3l0.3-0.3
	c0.3,0.5,1.4-0.1,1.7,0.5C-614.9,508-602.9,509.8-572.8,514z"/>
<path class="st0" d="M-480.1,492.8v2.1c-2.7-0.2-5.6-0.2-8.5-0.2c-6.4,0-12.5-0.5-19-0.5c-7.2-0.1-13.5,0.1-20.5-0.3
	c-1.1-0.1-2.3-0.2-3.5-0.3l-0.8,0.3c-1.8-0.4-3.7-0.5-5.5-0.3c-3,0.2-5,0.2-7.2,0.3c-2.9,0.1-5-0.3-7-0.3s-4.3,0.5-7,0
	c-1.1,0.4-2.6,0.2-3.7,0.6c-2.9-0.6-5.9-0.4-8.8-0.6c-2.4-0.1-4.7-0.8-7-0.8H-480.1z"/>
<path class="st0" d="M-480.1,496.3v6.6c-0.8,0-1.6,0-2.5,0c-9.8-0.1-19.4-0.6-28.5-1.1c-0.8,0-1.4,0.5-2.3,0.3
	c-0.9,0,0.3-1.5-0.6-1.4c-1.4,0-2.8,0.1-3.7-0.6c1.5-0.7,3.2-1,4.9-0.8l0.8-0.3l1.8,0.3c2.2,0.2,6.2,0,8.2,0.3
	c2.6,0.3,5.2,0.4,7.8,0.3c0.8-0.1,1.6-0.1,2.4,0c3.3-0.1,6.9-0.2,10.4,0h1l-0.8-0.3h-2.1c-1.8-0.4-3.5-0.5-5.3-0.5
	c-0.8-0.2-1.2-0.9-2-1.1h-1.4l-0.6,0.3l-0.4-0.3h-1.8c-0.3,0.5-1-0.5-1.2,0.6l1,0.8c-2.1,0.2-3.5-0.4-5.5-0.3c-0.6,0-1.2,0-1.8,0
	c-1,0-2.3-0.4-3.5-0.6l-1.4-0.3l-0.4,0.3c-1.4-0.2-2.7-0.3-4.1-0.3c-1.3,0-2.6,0.1-3.9,0c-0.7,0-1.2-1.2-1.7-0.5
	c-0.5-0.6-1.1-1.1-1.8-1.4c3.7-0.6,8.1,0,12.1,0c1.9,0,3.9-0.4,5.9-0.3C-494.3,496.5-487.3,496.4-480.1,496.3z"/>
<path class="st0" d="M-480.1,507.1v2.5c-3.3,0.2-6.4,0.2-9.1-0.7c0.7,0,1.5-0.8,2.5-0.3l1-1.1c0.7-0.1,1.5-0.3,2.1-0.6
	C-482.4,507.1-481.2,507.1-480.1,507.1z"/>
</svg>
