<?xml version="1.0" encoding="utf-8"?>
<!-- Generator: Adobe Illustrator 19.0.0, SVG Export Plug-In . SVG Version: 6.00 Build 0)  -->
<svg version="1.1" id="Layer_1" xmlns="http://www.w3.org/2000/svg" xmlns:xlink="http://www.w3.org/1999/xlink" x="0px" y="0px"
	 viewBox="-119 483 1680 40" style="enable-background:new -119 483 1680 40;" xml:space="preserve">
<style type="text/css">
	.st0{fill:#FFFFFF;}
</style>
<path class="st0" d="M-119,483v3.2c7.7,0.1,16.5-0.1,22.9,0.4h37.2c1.6,1.1,7.3-0.9,7.8,0.7c-20.2,0.1-38-0.1-55.3,0
	c-4-0.1-2,1.5-6.3,1.4c-2.5-0.1-4.5,0.2-6.3,0.3v13.1c5.7,0.2,11.2,0.4,16.4,0.7c-4.3,0-9.6,1-16.4,0.4v7.2
	c54.7,0.2,108.2,0.8,159.7,1.3c5.5,0,9-0.6,15.4-0.3c6.1,0.1-2.3,1.9,3.8,1.7c9.1,0,18.4-0.1,24.5,0.7c-10.1,0.9-21.1,1.2-32,1
	l-4.9,0.3L36,514.8c-14.2-0.2-40.7,0-53.9-0.4c-17.1-0.4-34.2-0.5-51.3-0.3c-5.1,0.1-10.3,0.1-15.4,0c-11.1,0.1-22.6,0.1-34.2,0.2
	v0.8c4.5,0.1,9.1,0.1,13.7,0.1c4.9,0.2,7.9,1.1,12.8,1.4h9l3.9-0.4l2.5,0.4h11.5c1.7-0.7,6.8,0.7,7.6-0.7l-6.4-1
	c13.4-0.3,22.9,0.5,35.9,0.3c3.8,0,7.7,0,11.6,0c6.8,0,14.7,0.5,23,0.7l9,0.3l2.5-0.3c9,0.2,18,0.3,27,0.3c8.4,0,17.4-0.1,25.6,0
	c4.4,0.1,8,1.5,11.4,0.7c3.1,0.8,7.1,1.4,11.6,1.7c-24.5,0.7-53,0-79.5,0c-12.7,0-25.5,0.5-38.3,0.4c-30.8-0.4-62.4-0.4-94.4-0.4
	v2.1c4,0,8.1,0,12.1,0c42.1,0,81.8,0.6,124.3,0.7c47.3,0.1,88.2-0.1,134.5,0.3c7.5,0.1,15,0.3,23,0.3l5.2-0.3
	c11.8,0.6,23.9,0.7,35.9,0.3c19.6-0.2,33.1-0.2,47.4-0.3c18.8-0.1,32.7,0.3,46.2,0.3s28.2-0.6,46.1,0c7.1-0.5,17-0.2,24.5-0.7
	c18.8,0.7,38.3,0.5,57.6,0.7c15.6,0.2,30.8,1,46.1,1c17,0,35.1-0.8,52.6-0.7c11.5-1,20.6-1.3,29.4-2.4c11.4-0.8,22.9-1.5,34.7-2.1
	c4.9-0.6,7.9-1.8,12.7-2.4c22.4-1.8,49-2.4,74.3-3.5c15.8-2,34.8-3.1,48.7-5.5l6.5-0.3c41.7,0.3,97.4,1.5,138.4,1
	c7.3-0.1,15,0.2,21.8,0c6.7-0.2,13.6-1.2,20.4-1.4l7.8-0.3c-6.2,0-12.1,0-15.4-0.7c4.5-0.3,9.3-0.6,14.1-0.7l11.5-0.7
	c6.9-1.1,18.7-1.9,26.9-0.7c-10.9,1.3-21.6,2.7-35.9,3.1c22.2,1.2,45.4,1.4,68.1,0.7c8.8,1.2,20.7,0.5,31.9,0.7
	c11.2,0.2,18.2,0,26.9,0c25.5,0,49.4,1.3,66.7,0.7c6.8,0.2,13.6,0.4,20.4,0.3c4.1,0.7,13.3-0.9,15.4,1c-31.3-0.1-60.8,0-85.9,0
	l-8.9-0.3c-14.4,0-30.1,0.1-43.6,0c-6-0.1-13.4-1-18,0.3c42.8,1.1,94.3,1,139.7,1.3c14.3,0.1,27.6,0.6,39.7,0.3l9,0.3
	c4.5,0,4.9,1.3,10.3,1c11.1,0.4,22.9-0.3,34.3-0.3c16.4,0,34.3,0.8,51.3,0.3c46.9,0.8,96.4,2.2,143.5,3.8
	c39.1,1.9,86.2,2.5,127.8,3.2v-36L-119,483L-119,483z M765.2,504.8l-2,0.4c-2-0.7-9.4,0.1-11.2-0.6c-0.3-0.1-0.4-0.2-0.4-0.4
	c0.9-0.1,1.7-0.2,2.6-0.2c1.8-0.1,3.7,0,5.6,0.2l13.9,0.4C773.2,504.8,773.4,504.9,765.2,504.8z"/>
</svg>
