<?xml version="1.0" encoding="utf-8"?>
<!-- Generator: Adobe Illustrator 19.0.0, SVG Export Plug-In . SVG Version: 6.00 Build 0)  -->
<svg version="1.1"
	 id="Layer_1" sodipodi:docname="brush-bottom-desk-svg.svg" inkscape:version="1.0.2-2 (e86c870879, 2021-01-15)" xmlns:inkscape="http://www.inkscape.org/namespaces/inkscape" xmlns:sodipodi="http://sodipodi.sourceforge.net/DTD/sodipodi-0.dtd" xmlns:cc="http://creativecommons.org/ns#" xmlns:svg="http://www.w3.org/2000/svg" xmlns:rdf="http://www.w3.org/1999/02/22-rdf-syntax-ns#" xmlns:dc="http://purl.org/dc/elements/1.1/"
	 xmlns="http://www.w3.org/2000/svg" xmlns:xlink="http://www.w3.org/1999/xlink" x="0px" y="0px" viewBox="-119 485 1680 36"
	 style="enable-background:new -119 485 1680 36;" xml:space="preserve">
<style type="text/css">
	.st0{fill:#FFFFFF;}
</style>
<sodipodi:namedview  inkscape:current-layer="Layer_1" borderopacity="1" id="namedview7" pagecolor="#ffffff" bordercolor="#666666" showgrid="false" inkscape:zoom="10.943319" inkscape:cy="19.835084" inkscape:cx="1646.2285" objecttolerance="10" guidetolerance="10" gridtolerance="10" inkscape:window-height="1271" inkscape:pageopacity="0" inkscape:window-width="2400" inkscape:pageshadow="2" inkscape:window-y="-9" inkscape:window-x="-9" inkscape:window-maximized="1">
	</sodipodi:namedview>
<path id="path4" class="st0" d="M1425,489.6c10.1,0,20.6-0.5,30.8-0.4c35.9,0.6,73,0.4,110.9,0.3v-1.7c-14.3-0.2-29.5-0.3-44.6-0.3
	c-33.8,0-65.8-0.6-99.9-0.7c-38.1-0.1-70.9,0.1-108.2-0.3c-6-0.1-12-0.3-18.6-0.3l-4.2,0.3c-9.4-0.6-19.3-0.7-28.9-0.3
	c-15.8,0.2-26.7,0.2-38.1,0.3c-15,0.1-26.3-0.3-37.1-0.3c-10.8,0-22.7,0.6-37.1,0c-5.7,0.5-13.6,0.2-19.7,0.7
	c-15.2-0.7-30.8-0.5-46.4-0.7c-12.5-0.2-24.8-1-37-1c-13.6,0-28.3,0.8-42.2,0.7c-9.2,1-16.6,1.3-23.7,2.4
	c-9.1,0.8-18.5,1.5-27.9,2.1c-3.9,0.6-6.3,1.8-10.2,2.4c-18,1.8-39.4,2.4-59.7,3.5c-12.6,2-28,3.1-39.1,5.5l-5.2,0.3
	c-33.5-0.3-78.4-1.5-111.3-1c-5.9,0.1-12.1-0.2-17.5,0s-10.9,1.2-16.5,1.4l-6.3,0.3c5,0,9.7,0,12.3,0.7c-3.6,0.3-7.4,0.6-11.3,0.7
	l-9.2,0.7c-5.5,1.1-15,1.9-21.6,0.7c8.7-1.3,17.4-2.7,28.9-3.1c-17.9-1.2-36.5-1.4-54.8-0.7c-7.1-1.2-16.7-0.5-25.7-0.7
	s-14.6,0-21.7,0c-20.6,0-39.7-1.3-53.6-0.7c-5.4-0.2-10.9-0.4-16.5-0.3c-3.3-0.7-10.6,0.9-12.3-1c25.2,0.1,49,0,69,0l7.1,0.3
	c11.5,0,24.2-0.1,35,0c4.8,0.1,10.7,1,14.5-0.3c-34.4-1.1-75.8-1-112.4-1.3c-11.4-0.1-22.2-0.6-31.9-0.3l-7.2-0.3
	c-3.6,0-3.9-1.3-8.3-1c-8.9-0.4-18.5,0.3-27.6,0.3c-13.2,0-27.6-0.8-41.2-0.3c-37.7-0.8-77.6-2.2-115.4-3.8
	c-35.8-2.1-80.1-2.6-116.4-3.5c-46.3-2.7-85.8-3.1-138-2.4c-23.7,1.1-49.2,1.1-69,4.5c-4.5,0.1-7.5,0.7-12.3,0.7
	c-18.6,4.8-46.7,6.5-60.7,12.8c-1.6,2.6-4.5,5.2-6,7.9v6.3l4.9,2.3h1562.2c-1.1,0-2.6-0.1-3.6,0l5.1-0.7c0.5,0.6-0.3,0.7-1.6,0.7
	h29.1v-0.1c16.2-0.1,30.5,0.1,44.4,0c3.2,0.1,1.6-1.5,5.1-1.4s5.7-0.8,8.3,0c-1.5,1.4-6.4-0.5-6.2,1.4h14.5c1.8-0.5,1.8-1.7,5.1-1.7
	c7,0.5,11.5-0.2,18.3,0.1v-13.1c-17.3,0.2-33.9,0.3-48.1-0.8c3.5,0,7.8-1,13.3-0.3l5.2-1.4c3.8-0.1,7.6-0.4,11.3-0.7
	c6.2,0,12.2,0.1,18.2,0.1v-5.2c-4.3,0-8.6,0-12.9,0c-51.7-0.1-102.1-0.8-150.4-1.4c-4.4,0-7.2,0.6-12.3,0.3c-4.9-0.1,1.8-1.9-3-1.7
	c-7.3,0-14.7,0.1-19.7-0.7c8.1-0.9,17-1.2,25.8-1l3.9-0.3l9.2,0.3c11.3,0.2,32.7,0,43.3,0.4c13.7,0.4,27.5,0.5,41.2,0.3
	c4.1-0.1,8.3-0.1,12.4,0c17.6-0.1,36.2-0.3,54.6,0h5.1l-3.9-0.3h-11.3c-9.2-0.5-18.5-0.7-27.9-0.7c-3.9-0.2-6.4-1.1-10.3-1.4h-7.2
	l-3.1,0.4l-2-0.4h-9.2c-1.3,0.7-5.4-0.7-6.1,0.7l5.1,1c-10.8,0.3-18.4-0.5-28.9-0.3c-3.1,0-6.2,0-9.3,0c-5.5,0-11.8-0.5-18.5-0.7
	l-7.2-0.3l-2,0.3c-7.2-0.2-14.4-0.3-21.7-0.3c-6.8,0-13.9,0.1-20.7,0c-3.5-0.1-6.4-1.5-9.2-0.7c-2.5-0.8-5.7-1.4-9.3-1.7
	C1380.8,488.9,1403.7,489.6,1425,489.6L1425,489.6z M1437.4,520.3l1,0.3l-3.1-0.3H1437.4z M1417.8,520.3l-3,0.3h-3.1L1417.8,520.3z
	 M1380.8,520c5.4-0.1,6,0.4,10.3,0C1391.7,521.1,1380.1,521.1,1380.8,520z M1372.4,520h3.1v0.7h-3.1V520z M822.3,503
	c1.6,0.7,7.5-0.1,9,0.6c-4.7-0.1-8.1-0.2-10.5-0.3L822.3,503z M825,504.1l4.5,0.2C828,504.3,826.6,504.2,825,504.1z M1358.1,520.7
	h-3.1V520h3.1V520.7z M1321,520c-344.4-11.5-454.2-15.4-489.6-16.3c-4.7-0.1-8.1-0.2-10.5-0.3c-6.6-0.1-6.4,0.1-6.8,0.4l11.1,0.4
	l4.5,0.2l497.5,16.1L1321,520z M831.4,503.6c-4.7-0.1-8.1-0.2-10.5-0.3l-1.5,0.4c2.1,0,4,0.2,5.8,0.4l4.5,0.2c0.7,0,1.4-0.1,2.1-0.2
	C831.7,503.8,831.6,503.7,831.4,503.6z M1562.8,521c1.3,0,2.6,0,3.9,0v-0.9C1564.7,520.1,1562.7,520.1,1562.8,521z"/>
</svg>
