<?xml version="1.0" encoding="utf-8"?>
<!-- Generator: Adobe Illustrator 19.0.0, SVG Export Plug-In . SVG Version: 6.00 Build 0)  -->
<svg version="1.1" id="Layer_1" xmlns="http://www.w3.org/2000/svg" xmlns:xlink="http://www.w3.org/1999/xlink" x="0px" y="0px"
	 viewBox="-119 490 1680 26" style="enable-background:new -119 490 1680 26;" xml:space="preserve">
<style type="text/css">
	.st0{fill:#FFFEFB;}
	.st1{fill:none;}
</style>
<path class="st0" d="M754,496.7c-0.5,0-0.9,0-1.3,0.1l1.4,0l5.4,0.1L754,496.7z M754,496.7c-0.5,0-0.9,0-1.3,0.1l1.4,0l5.4,0.1
	L754,496.7z M486.5,490.2c1.2,0,2.4,0.1,3.5,0.1h15.2v-0.1H486.5z"/>
<path class="st0" d="M1561.2,490.3v21.5c-41.6-0.7-88.7-1.3-127.8-3.2c-47.1-1.6-96.6-3-143.5-3.8c-17,0.5-34.9-0.3-51.3-0.3
	c-11.4,0-23.2,0.7-34.3,0.3c-5.4,0.3-5.8-1-10.3-1l-9-0.3c-12.1,0.3-25.4-0.2-39.7-0.3c-45.4-0.3-96.9-0.2-139.7-1.3
	c4.6-1.4,12-0.5,18-0.4c13.5,0.1,29.2,0,43.6,0l8.9,0.4c25.1,0,54.6-0.1,85.9,0c-2.1-2-11.3-0.4-15.4-1.1
	c-6.8,0.1-13.6-0.1-20.4-0.3c-17.3,0.6-41.2-0.7-66.7-0.7c-8.7,0-15.7,0.2-26.9,0c-11.2-0.2-23.1,0.5-31.9-0.7
	c-22.7,0.7-45.9,0.5-68.1-0.7c14.3-0.4,25-1.8,35.9-3.1c-8.2-1.2-20-0.4-26.9,0.7l-11.5,0.7c-4.8,0.1-9.6,0.4-14.1,0.7
	c3.3,0.7,9.2,0.7,15.4,0.7l-7.8,0.3c-6.8,0.2-13.7,1.2-20.4,1.4c-6.8,0.2-14.5-0.1-21.8,0c-41,0.5-96.7-0.7-138.4-1l-6.5,0.3
	c-13.9,2.5-32.9,3.6-48.7,5.6c-25.3,1.1-51.9,1.7-74.3,3.5c-4.8,0.6-7.8,1.8-12.7,2.4c-11.8,0.6-23.3,1.3-34.7,2.1
	c-8.8,1.1-17.9,1.4-29.4,2.4c-17.5-0.1-35.6,0.7-52.6,0.7c-15.3,0-30.5-0.8-46.1-1c-19.3-0.2-38.8,0-57.6-0.7
	c-7.5,0.5-17.4,0.2-24.5,0.7c-17.9-0.6-32.6,0-46.1,0s-27.4-0.4-46.2-0.3c-14.3,0.1-27.8,0.1-47.4,0.3c-12,0.4-24.1,0.3-35.9-0.3
	l-5.2,0.3c-8,0-15.5-0.2-23-0.3c-46.4-0.4-87.3-0.2-134.6-0.3c-42.5-0.1-82.2-0.7-124.3-0.7H-119v-2.1c32,0,63.6,0,94.4,0.4
	c12.8,0.1,25.6-0.4,38.3-0.4c26.5,0,55,0.7,79.5,0c-4.5-0.3-8.5-0.9-11.6-1.7c-3.4,0.8-7-0.6-11.4-0.7c-8.2-0.1-17.2,0-25.6,0
	c-9,0-18-0.1-27-0.3l-2.5,0.3l-9-0.3c-8.3-0.2-16.2-0.7-23-0.7c-3.9,0.1-7.7,0.1-11.6,0c-13,0.2-22.5-0.6-35.9-0.3l6.4,1
	c-0.8,1.4-5.9,0-7.6,0.7H-77l-2.5-0.4l-3.9,0.4h-9c-4.9-0.3-7.9-1.2-12.8-1.4c-4.6,0-9.1,0-13.7-0.1v-0.8
	c11.6-0.1,23.1-0.1,34.2-0.2c5.1,0.1,10.3,0.1,15.4,0c17.1-0.2,34.3-0.1,51.3,0.3c13.2,0.4,39.7,0.2,53.9,0.4l11.5,0.3l4.9-0.3
	c10.9,0.2,21.9-0.1,32-1c-6.1-0.8-15.4-0.7-24.5-0.7c-6.1,0.2,2.3-1.6-3.8-1.7c-6.4-0.3-9.9,0.3-15.4,0.3
	c-51.5-0.5-105-1.1-159.7-1.3V496c6.8,0.6,12.1-0.4,16.4-0.4c-5.2-0.3-10.7-0.6-16.4-0.7v-4.6H1561.2z"/>
<line class="st1" x1="763.2" y1="497.6" x2="753.3" y2="497.6"/>
<path class="st0" d="M754.2,496.8l-1.4,0c0.4,0,0.8-0.1,1.3-0.1c1.9,0,3.7,0,5.6,0.2h-0.1L754.2,496.8z"/>
<path class="st0" d="M752.2,497.3c5.7,0.1,9.7,0.2,12.7,0.3C761.9,497.6,757.8,497.5,752.2,497.3z"/>
<path class="st0" d="M773.7,497.3c-0.4,0.2-0.4,0.3-3.8,0.3c-1.2,0-2.7,0-4.7,0H765l1.9-0.4c-2.5,0-4.8-0.2-7.1-0.3L773.7,497.3z"/>
</svg>
