<?xml version="1.0" encoding="utf-8"?>
<!-- Generator: Adobe Illustrator 19.0.0, SVG Export Plug-In . SVG Version: 6.00 Build 0)  -->
<svg version="1.1" id="Layer_1" xmlns="http://www.w3.org/2000/svg" xmlns:xlink="http://www.w3.org/1999/xlink" x="0px" y="0px"
	 viewBox="-799 493 320 19" style="enable-background:new -799 493 320 19;" xml:space="preserve">
<style type="text/css">
	.st0{fill:#FFFEFB;}
</style>
<path class="st0" d="M-799,493v2.3c1.1,0.1,2.1,0.3,3.1,0.5c-0.8,0-1.8,0.8-3.1,0.3v5.8c10.4,0.2,20.6,0.6,30.4,1
	c1,0,1.7-0.4,2.9-0.3c1.2,0-0.4,1.5,0.7,1.4c1.7,0,3.5-0.1,4.7,0.5c-1.9,0.7-4,1-6.1,0.8l-0.9,0.3l-2.2-0.3c-2.7-0.2-7.8,0-10.3-0.3
	c-3.3-0.3-6.5-0.4-9.8-0.3c-1,0.1-2,0.1-3,0c-2.1,0-4.3,0.1-6.5,0.1v0.6c0.9,0.1,1.7,0.1,2.6,0.1c0.9,0.2,1.5,0.9,2.4,1.1h1.7
	l0.7-0.3l0.5,0.3h2.2c0.3-0.5,1.3,0.5,1.5-0.6l-1.2-0.8c2.6-0.2,4.4,0.4,6.8,0.3c0.7,0,1.5,0,2.2,0c1.3,0,2.8,0.4,4.4,0.6l1.7,0.3
	l0.5-0.3c1.7,0.2,3.4,0.3,5.1,0.3c1.6,0,3.3-0.1,4.9,0c0.8,0.1,1.5,1.2,2.2,0.6c0.6,0.6,1.4,1.1,2.2,1.4c-4.7,0.6-10.1,0-15.1,0
	c-2.4,0-4.9,0.4-7.3,0.3c-5.9-0.3-11.9-0.3-18-0.3v1.6c0.8,0,1.5,0,2.3,0c8,0,15.6,0.5,23.7,0.6c9,0.1,16.8-0.1,25.6,0.3
	c1.4,0.1,2.9,0.2,4.4,0.3l1-0.3c2.2,0.4,4.5,0.5,6.8,0.3c3.7-0.2,6.3-0.2,9-0.3c3.6-0.1,6.2,0.3,8.8,0.3c2.6,0,5.4-0.5,8.8,0
	c1.4-0.4,3.2-0.2,4.7-0.5c3.6,0.5,7.3,0.3,11,0.5c3,0.2,5.9,0.8,8.8,0.8c3.2,0,6.7-0.7,10-0.5c2.2-0.8,3.9-1,5.6-1.9
	c2.2-0.7,4.4-1.2,6.6-1.7c0.9-0.5,1.5-1.4,2.4-1.9c4.3-1.4,9.3-1.9,14.2-2.8c3-1.6,6.6-2.4,9.3-4.4l1.2-0.3
	c7.9,0.3,18.6,1.2,26.4,0.8c1.4-0.1,2.9,0.2,4.1,0c1.3-0.2,2.6-1,3.9-1.1l1.5-0.3c-1.2,0-2.3,0-2.9-0.5c0.9-0.3,1.8-0.5,2.7-0.6
	l2.2-0.5c1.3-0.9,3.6-1.5,5.1-0.6c-2.1,1-4.1,2.2-6.8,2.5c4.2,0.9,8.6,1.1,13,0.6c1.7,0.9,4,0.4,6.1,0.6c2.1,0.2,3.5,0,5.1,0
	c4.9,0,9.4,1,12.7,0.5c1.3,0.2,2.6,0.3,3.9,0.3c0.8,0.5,2.5-0.7,2.9,0.8c-6-0.1-11.6,0-16.4,0l-1.7-0.3c-2.8,0-5.7,0.1-8.3,0
	c-1.1,0-2.5-0.8-3.4,0.3c8.2,0.9,18,0.8,26.6,1c2.7,0.1,5.3,0.5,7.6,0.3l1.7,0.3c0.9,0,0.9,1,2,0.8c2.1,0.3,4.4-0.3,6.5-0.3
	c3.1,0,6.5,0.7,9.8,0.3c8.9,0.6,18.4,1.7,27.3,3c7.5,1.5,16.4,2,24.3,2.5V493H-799z M-633.1,497.3L-633.1,497.3c0.1,0,0.3,0,0.4,0
	C-632.8,497.4-632.9,497.4-633.1,497.3z M-630.6,497.5c-0.1,0-0.3,0-0.5,0C-630.9,497.5-630.7,497.5-630.6,497.5L-630.6,497.5
	L-630.6,497.5z"/>
</svg>
