<?xml version="1.0" encoding="utf-8"?>
<!-- Generator: Adobe Illustrator 19.0.0, SVG Export Plug-In . SVG Version: 6.00 Build 0)  -->
<svg version="1.1" id="Layer_1" xmlns="http://www.w3.org/2000/svg" xmlns:xlink="http://www.w3.org/1999/xlink" x="0px" y="0px"
	 viewBox="-119 485 1680 36" style="enable-background:new -119 485 1680 36;" xml:space="preserve">
<style type="text/css">
	.st0{fill:#FFFFFF;}
</style>
<path class="st0" d="M1419.8,489.5c10.1,0,20.5-0.5,30.7-0.4c35.8,0.6,72.8,0.4,110.5,0.3v-1.7c-14.3-0.2-29.4-0.3-44.5-0.3
	c-33.7,0-65.6-0.6-99.6-0.7c-38-0.1-70.7,0.1-107.8-0.3c-6-0.1-12-0.3-18.5-0.3l-4.2,0.3c-9.4-0.6-19.2-0.7-28.8-0.3
	c-15.7,0.2-26.6,0.2-38,0.3c-15,0.1-26.2-0.3-37-0.3s-22.6,0.6-37,0c-5.7,0.5-13.6,0.2-19.6,0.7c-15.1-0.7-30.7-0.5-46.2-0.7
	c-12.5-0.2-24.7-1-36.9-1c-13.6,0-28.2,0.8-42.1,0.7c-9.2,1-16.5,1.3-23.6,2.4c-9.1,0.8-18.4,1.5-27.8,2.1
	c-3.9,0.6-6.3,1.8-10.2,2.4c-17.9,1.8-39.3,2.4-59.5,3.5c-12.6,2-27.9,3.1-39,5.5l-5.2,0.3c-33.4-0.3-78.1-1.5-110.9-1
	c-5.9,0.1-12.1-0.2-17.4,0c-5.4,0.2-10.9,1.2-16.4,1.4l-6.3,0.3c5,0,9.7,0,12.3,0.7c-3.6,0.3-7.4,0.6-11.3,0.7l-9.2,0.7
	c-5.5,1.1-15,1.9-21.5,0.7c8.7-1.3,17.3-2.7,28.8-3.1c-17.8-1.2-36.4-1.4-54.6-0.7c-7.1-1.2-16.6-0.5-25.6-0.7s-14.6,0-21.6,0
	c-20.5,0-39.6-1.3-53.4-0.7c-5.4-0.2-10.9-0.4-16.4-0.3c-3.3-0.7-10.6,0.9-12.3-1c25.1,0.1,48.8,0,68.8,0l7.1,0.3
	c11.5,0,24.1-0.1,34.9,0c4.8,0.1,10.7,1,14.5-0.3c-34.3-1.1-75.5-1-112-1.3c-11.4-0.1-22.1-0.6-31.8-0.3l-7.2-0.3
	c-3.6,0-3.9-1.3-8.3-1c-8.9-0.4-18.4,0.3-27.5,0.3c-13.2,0-27.5-0.8-41.1-0.3c-37.6-0.8-77.3-2.2-115-3.8
	c-35.7-2.1-79.8-2.6-116-3.5c-46.1-2.7-85.5-3.1-137.5-2.4c-23.6,1.1-49,1.1-68.8,4.5c-4.5,0.1-7.5,0.7-12.3,0.7
	c-18.5,4.8-46.5,6.5-60.5,12.8c-1.6,2.6-4.5,5.2-6,7.9v6.3l4.9,2.3h1557c-1.1,0-2.6-0.1-3.6,0l5.1-0.7c0.5,0.6-0.3,0.7-1.6,0.7h29
	v-0.1c16.1-0.1,30.4,0.1,44.3,0c3.2,0.1,1.6-1.5,5.1-1.4s5.7-0.8,8.3,0c-1.5,1.4-6.4-0.5-6.2,1.4h14.5c1.8-0.5,1.8-1.7,5.1-1.7
	c7,0.5,11.5-0.2,18.2,0.1v-13.1c-17.2,0.2-33.8,0.3-47.9-0.8c3.5,0,7.8-1,13.3-0.3l5.2-1.4c3.8-0.1,7.6-0.4,11.3-0.7
	c6.2,0,12.2,0.1,18.1,0.1v-5.2c-4.3,0-8.6,0-12.9,0c-51.5-0.1-101.8-0.8-149.9-1.4c-4.4,0-7.2,0.6-12.3,0.3c-4.9-0.1,1.8-1.9-3-1.7
	c-7.3,0-14.7,0.1-19.6-0.7c8.1-0.9,16.9-1.2,25.7-1l3.9-0.3l9.2,0.3c11.3,0.2,32.6,0,43.2,0.4c13.7,0.4,27.4,0.5,41.1,0.3
	c4.1-0.1,8.3-0.1,12.4,0c17.5-0.1,36.1-0.3,54.4,0h5.1l-3.9-0.3h-11.3c-9.2-0.5-18.4-0.7-27.8-0.7c-3.9-0.2-6.4-1.1-10.3-1.4h-7.2
	l-3.1,0.4l-2-0.4h-9.2c-1.3,0.7-5.4-0.7-6.1,0.7l5.1,1c-10.8,0.3-18.3-0.5-28.8-0.3c-3.1,0-6.2,0-9.3,0c-5.5,0-11.8-0.5-18.4-0.7
	l-7.2-0.3l-2,0.3c-7.2-0.2-14.4-0.3-21.6-0.3c-6.8,0-13.9,0.1-20.6,0c-3.5-0.1-6.4-1.5-9.2-0.7c-2.5-0.8-5.7-1.4-9.3-1.7
	C1375.7,488.8,1398.5,489.5,1419.8,489.5z M1432,520.2l1,0.3l-3.1-0.3H1432z M1412.5,520.2l-3,0.3h-3.1L1412.5,520.2z M1375.7,519.9
	c5.4-0.1,6,0.4,10.3,0C1386.5,521,1374.9,521,1375.7,519.9z M1367.3,519.9h3.1v0.7h-3.1V519.9z M819,502.9c1.6,0.7,7.5-0.1,9,0.6
	c-4.7-0.1-8.1-0.2-10.5-0.3L819,502.9z M821.8,504l4.5,0.2C824.8,504.2,823.3,504.1,821.8,504z M1353,520.6h-3.1v-0.7h3.1V520.6z
	 M1316,519.9c-343.3-11.5-452.7-15.4-488-16.3c-4.7-0.1-8.1-0.2-10.5-0.3c-6.6-0.1-6.4,0.1-6.8,0.4l11.1,0.4l4.5,0.2l495.9,16.1
	L1316,519.9z M828,503.5c-4.7-0.1-8.1-0.2-10.5-0.3l-1.5,0.4c2.1,0,4,0.2,5.8,0.4l4.5,0.2c0.7,0,1.4-0.1,2.1-0.2
	C828.3,503.7,828.3,503.6,828,503.5z M1557,520.9c1.3,0,2.6,0,3.9,0V520C1558.9,520,1556.9,520,1557,520.9z"/>
</svg>
