<?xml version="1.0" encoding="utf-8"?>
<!-- Generator: Adobe Illustrator 19.0.0, SVG Export Plug-In . SVG Version: 6.00 Build 0)  -->
<svg version="1.1" id="Layer_1" xmlns="http://www.w3.org/2000/svg" xmlns:xlink="http://www.w3.org/1999/xlink" x="0px" y="0px"
	 viewBox="-799 492 320 22" style="enable-background:new -799 492 320 22;" xml:space="preserve">
<style type="text/css">
	.st0{fill:#FFFFFF;}
</style>
<path class="st0" d="M-518,496.2c0.5,0.2,1,0.6,1.4,1c0.1,0.1,0.3,0.3,0.4,0.4l0.1-0.1c0.3-0.3,0.7,0,1,0.3c0.2,0.1,0.4,0.3,0.6,0.3
	c1.3,0.1,2.6,0,3.9,0c1.4,0,2.8,0.1,4.1,0.3l0.4-0.3l1.4,0.3c1.3,0.2,2.5,0.6,3.5,0.6h1.8c2-0.1,3.4,0.5,5.5,0.3l-1-0.8
	c0.1-1.1,0.9,0,1.2-0.6h1.8l0.4,0.3l0.6-0.3h1.4c0.6,0.1,0.9,0.5,1.4,0.8c0.2,0.1,0.4,0.2,0.6,0.3c1.7,0,3.3,0.2,5,0.5
	c0.1,0,0.2,0,0.3,0h2.1h0.1l1,0.3h-1.3c-3.5-0.2-7-0.1-10.4,0c-0.8-0.1-1.6-0.1-2.4,0c-2.6,0.1-5.2,0-7.8-0.3
	c-2-0.3-6.1-0.1-8.2-0.3l-1.8-0.3l-0.8,0.3c-1.7-0.2-3.3,0.1-4.9,0.8c0.1,0.1,0.2,0.2,0.3,0.2c0.7,0.4,1.7,0.4,2.7,0.4h0.6
	c0.7-0.1,0.1,0.7,0.2,1.1c0,0.1,0.1,0.3,0.4,0.3c1,0.2,1.5-0.3,2.3-0.3c9.2,0.5,18.7,1,28.5,1.1h2.5v4.1c-0.3,0-0.7,0-1,0
	c-0.8,0-1.7,0-2.5-0.1c-0.7,0.3-1.4,0.5-2.1,0.6l-1,1.1c-1-0.5-1.9,0.3-2.5,0.3l0,0l0,0c2.7,0.9,5.9,0.8,9.1,0.7v4.4h-92.7
	c-0.3,0-0.7,0.1-1,0.1H-799c0.3-2,0.9-4,1.2-5.9c2.7-5,8-6.4,11.5-10.2c0.9,0,1.5-0.5,2.4-0.6c3.8-2.7,8.6-2.8,13.1-3.6
	c9.9-0.5,17.4-0.3,26.2,1.9c6.9,0.7,15.3,1.1,22.1,2.8c7.2,1.3,14.8,2.4,21.9,3c2.6-0.4,5.3,0.3,7.8,0.3c1.7,0,3.5-0.6,5.2-0.3
	c0.8-0.2,0.9,0.8,1.6,0.8l1.4,0.3c1.8-0.2,3.9,0.2,6.1,0.3c6.9,0.2,14.8,0.1,21.3,1c-0.7,1.1-1.8,0.3-2.8,0.3c-2.1-0.1-4.5,0-6.6,0
	l-1.4-0.3c-3.8,0-8.3,0.1-13.1,0c0.3,1.5,1.7,0.3,2.4,0.8c1,0,2.1,0.1,3.1,0.3c2.6-0.5,6.3,0.5,10.2,0.6c1.3,0,2.4-0.2,4.1,0
	s3.5-0.4,4.9,0.6c3.5-0.6,7-0.4,10.4,0.5c-2.2,0.3-3.8,1.4-5.5,2.5c1.3,0.9,3.1,0.3,4.1-0.5l1.8-0.5c0.7-0.1,1.5-0.3,2.2-0.6
	c-0.5-0.5-1.4-0.5-2.4-0.5l1.2-0.3c1-0.1,2.1-1,3.1-1.1c1-0.2,2.2,0.1,3.3,0c4.4-0.3,10,0.1,15,0.4c2.1,0.1,4.2,0.3,6.1,0.4l1-0.3
	l0.1-0.1c2.1-1.9,4.9-2.7,7.3-4.3c3.9-0.8,7.9-1.3,11.3-2.8c0.7-0.5,1.2-1.5,1.9-1.9c1.8-0.5,3.6-1,5.3-1.7c1.4-0.9,2.7-1.1,4.5-1.9
	c2.7,0.1,5.4-0.5,8-0.5c2.3,0,4.6,0.6,7,0.8c2.9,0.2,5.9,0,8.8,0.6c1.1-0.4,2.7-0.2,3.7-0.6c2.7,0.5,5,0,7,0s4.2,0.4,7,0.3
	c2.2-0.1,4.2-0.1,7.2-0.3c1.8-0.3,3.7-0.2,5.5,0.3l0.8-0.3c1.2,0.1,2.4,0.2,3.5,0.3c7.1,0.4,13.3,0.2,20.5,0.3
	c6.5,0.1,12.5,0.5,19,0.5c2.9,0,5.9,0.1,8.7,0.2v1.4h-1c-6.9,0-13.7,0.2-20.2-0.3c-2-0.1-3.9,0.3-5.9,0.3
	C-509.9,496.2-514.2,495.6-518,496.2z"/>
</svg>
