<?xml version="1.0" encoding="utf-8"?>
<!-- Generator: Adobe Illustrator 19.0.0, SVG Export Plug-In . SVG Version: 6.00 Build 0)  -->
<svg version="1.1" id="Layer_1" xmlns="http://www.w3.org/2000/svg" xmlns:xlink="http://www.w3.org/1999/xlink" x="0px" y="0px"
	 viewBox="-954 163 11 680" style="enable-background:new -954 163 11 680;" xml:space="preserve">
<style type="text/css">
	.st0{opacity:0.8;fill:#FFFEFB;enable-background:new    ;}
</style>
<path class="st0" d="M-953.3,252.7v0.8l0.1-1.2L-953.3,252.7z M-953.3,260.3l0.1,2.4v-1.2L-953.3,260.3z M-953.4,283.4v1.2h0.2v-1.2
	H-953.4z M-953.4,276.6v1.2h0.2v-1.2H-953.4z M-953.4,270.6c0.1,1.6,0,1.9,0,4C-953,274.9-953,270.4-953.4,270.6z M-953.3,247.9
	l0.2,2C-953.1,249.1-952.9,247.5-953.3,247.9z M-949.8,407v-1.2c-0.1-9-0.1-17.6-0.2-25.9v-17.1c0-7.1,0.2-12.7,0-18.3
	c-0.4-0.4-0.1,2.1-0.3,2.4c-0.1,0.7,0.1,2.5-0.3,2.4c-0.1-1.8,0.3-4.1-0.1-4.3c-0.2,14.7,0.4,28.6,0.2,43.8l0.2,3.2
	c0,3.1,0,6.1,0.1,9.2c-0.1,2.9,0.1,6.5,0.1,9.6l-0.1,2.8l0.1,2.8c0,1.9-0.2,5.1,0.1,7.2C-949.5,417.7-949.8,413.3-949.8,407z
	 M-945,676.6c0.3-4.1,0.4-9.3,1-12.3c0.7-14.6,1-29.7,0.9-44.7c-0.3-1.9-0.6-5.4-0.3-7.2c-0.2-3.8-0.2-9.2-0.3-12l-0.4-2.8
	c-0.1-9.3-0.4-18.2-0.4-27.9l0.2-1.5c0.4-3.3-0.2-6.9-0.5-9.2c0-2.6-0.2-4.4-0.2-6.8c0.3-0.4,0.4,1.9,0.4,0
	c-0.1-1.3,0.1-3.7-0.1-4.4c-0.1-1.4-0.5-1.8-0.4-3.6c-0.1-1.8-0.1-3.8,0-5.6l-0.5-4v-24.7c0-12.2-0.1-25.8,0-34.7
	c0-2.6-0.1-5.3,0-7.6c0-1.9-0.3-1.8-0.1-3.6c-0.1-4.8-0.2-9.6-0.2-14.4c-0.3-6.6-0.3-13.6-0.4-20.3c-0.2-6.3-0.3-12.7-0.3-19.1
	l-0.1-1.2c0.2-1.5-0.5-0.1-0.3-1.6V405l-0.3-1.2c-0.7-24.4-0.6-47.4-0.8-69v-2.3c0.3-17.2-0.2-35.5-0.1-53.4
	c-0.5-4.6,0-13.2-0.3-18.3c-0.1,2.2-0.2,4.3-0.3,6.4c0,11.1-0.6,25.2-0.7,37.5l0.1,2c-0.1,8.3-0.1,14-0.1,22.3
	c-0.2,1.9-0.4,2.7-0.4,4.4c0.1,1.5-0.5,0.7-0.3,2.4l-0.2,2.8c-0.5-21.1-0.5-42.4-0.8-66.9c-0.3-1.5-0.2-4.5-0.3-6.4
	c0.1-18.1-0.4-34.2-0.6-53.5c-0.6,2.3-0.2,8.1-0.4,11.6V235c-0.3,0.5,0.3,2.3-0.2,2.4v-17.2c0-1.3-0.5-0.6-0.4-2
	c0-1.4-0.3-2.2,0-3.2c0.4,0.6-0.2,2.5,0.4,2.4v-5.6c-0.2-0.7-0.5-0.7-0.5-2c0.2-3.1-0.2-5,0.1-8.4c0.3,0.5,0,2.9,0.4,2.8
	c0-5.3,0.1-8.1,0-12c-0.4-0.4,0,2.2-0.4,2c-0.2-5.1-0.2-10-0.2-15.4h-0.6v137.5c0,1,0,1.9-0.1,2.9V843h4.6c0.6-2,1.2-3.9,1.9-5.7
	c0.3-2.1,0.6-4,1-5.6c0.2-2.5,0.5-4.3,0.7-6.8c0.4-4.4,0.6-8.9,0.9-13.5c0.4-13.4-0.6-26.7-1.2-39.1c0.2-5.5,0.6-11.2,0.9-16.8
	c0.1-2.9,0.2-5.8,0.3-8.8c0.1-2.9,0.3-5.5,0.4-8.3c0.4-12,0.7-24.1,0.7-36.3c-0.1-2.8-0.3-5.6-0.5-8.4
	C-944.4,686.2-944.4,682.7-945,676.6z M-954,322.5l0.1-3.1l0.6-24.1l-0.1,2.5c-0.2,6.4-0.3,12.6-0.5,18.5c0,1,0,1.9-0.1,2.9V322.5z"
	/>
</svg>
