<?xml version="1.0" encoding="utf-8"?>
<!-- Generator: Adobe Illustrator 19.0.0, SVG Export Plug-In . SVG Version: 6.00 Build 0)  -->
<svg version="1.1" id="Layer_1" xmlns="http://www.w3.org/2000/svg" xmlns:xlink="http://www.w3.org/1999/xlink" x="0px" y="0px"
	 viewBox="-517.5 497.5 825 10" style="enable-background:new -517.5 497.5 825 10;" xml:space="preserve">
<style type="text/css">
	.st0{opacity:0.8;fill:#FFFEFB;enable-background:new    ;}
</style>
<path class="st0" d="M259.6,499.8c5.3,0,10.7-0.2,16.1-0.1c10.4,0.1,21,0.1,31.8,0.1v-0.7c-16.7,0-32.5-0.2-49.4-0.2
	c-19.9,0-37,0-56.4-0.1c-3.2,0-6.3-0.1-9.7-0.1l-2.2,0.1c-4.9-0.2-10-0.2-15-0.1c-8.2,0.1-13.9,0.1-19.9,0.1
	c-7.9,0-13.7-0.1-19.4-0.1c-5.7,0-11.8,0.2-19.4,0c-3,0.2-7.1,0.1-10.3,0.2c-7.9-0.2-16.1-0.1-24.2-0.2c-6.6-0.1-12.9-0.3-19.3-0.3
	c-7.1,0-14.7,0.3-22.1,0.2c-4.8,0.3-8.6,0.4-12.3,0.8c-4.8,0.3-9.6,0.5-14.5,0.7c-2,0.2-3.3,0.6-5.3,0.8c-9.4,0.6-20.6,0.8-31.1,1.1
	c-6.6,0.6-14.6,1-20.4,1.8l-2.7,0.1c-17.5-0.1-40.8-0.5-58-0.3c-3.1,0-6.3-0.1-9.1,0c-2.8,0.1-5.7,0.4-8.6,0.4l-3.3,0.1
	c2.6,0,5.1,0,6.5,0.2c-1.9,0.1-3.9,0.2-5.9,0.2l-4.8,0.2c-2.9,0.4-7.8,0.6-11.3,0.2c4.6-0.4,9-0.9,15-1c-9.3-0.4-19-0.4-28.6-0.2
	c-3.7-0.4-8.7-0.2-13.4-0.2c-4.7-0.1-7.6,0-11.3,0c-10.7,0-20.7-0.4-28-0.2c-2.8-0.1-5.7-0.1-8.6-0.1c-1.7-0.2-5.6,0.3-6.5-0.3
	c13.1,0,25.5,0,36,0l3.7,0.1c6,0,12.6,0,18.3,0c2.5,0,5.6,0.3,7.6-0.1c-17.9-0.3-39.5-0.3-58.6-0.4c-6,0-11.6-0.2-16.7-0.1l-3.8-0.1
	c-1.9,0-2.1-0.4-4.3-0.3c-4.7-0.1-9.6,0.1-14.4,0.1c-6.9,0-14.4-0.3-21.5-0.1c-19.6-0.3-40.4-0.7-60.2-1.2
	c-18.7-0.7-41.7-0.8-60.7-1.1c-24.1-0.9-44.7-1-72-0.8c-12.3,0.3-25.7,0.3-36,1.4c-2.3,0-3.9,0.2-6.5,0.2c-2,0.3-4.3,0.6-6.6,0.8
	v6.2h825v-5.1c-20.2-0.1-40-0.3-59.2-0.4c-2.3,0-3.8,0.2-6.5,0.1c-2.5,0,1-0.6-1.6-0.6c-3.8,0-7.7,0-10.3-0.2
	c4.2-0.3,8.9-0.4,13.4-0.3l2.1-0.1l4.8,0.1c5.9,0.1,17.1,0,22.6,0.1c7.1,0.1,14.3,0.2,21.5,0.1c2.2,0,4.3,0,6.5,0c2.2,0,4.3,0,6.5,0
	v-0.5c-1.1-0.1-2-0.2-3.3-0.3h-3.8l-1.6,0.1l-1-0.1h-4.8c-0.7,0.2-2.8-0.2-3.2,0.2l2.7,0.3c-5.6,0.1-9.6-0.2-15-0.1
	c-1.6,0-3.2,0-4.9,0c-2.8,0-6.2-0.2-9.6-0.2l-3.8-0.1l-1,0.1c-3.8-0.1-7.5-0.1-11.3-0.1c-3.5,0-7.3,0-10.8,0c-1.8,0-3.3-0.5-4.8-0.2
	c-1.3-0.2-3-0.4-4.9-0.6C236.5,499.6,248.5,499.8,259.6,499.8z M-53.3,504.4l2.2,0C-51.8,504.5-52.5,504.4-53.3,504.4z M-55.6,504.2
	l0.8-0.1c0.8,0.2,3.9,0,4.7,0.2C-52.5,504.2-54.3,504.2-55.6,504.2z M-50.1,504.2c-2.4,0-4.2-0.1-5.5-0.1l-0.8,0.1
	c1.1,0,2,0.1,3,0.1l0.1,0l2.2,0c0.4,0,0.8,0,1.2-0.1C-49.9,504.3-50,504.3-50.1,504.2z M-50.1,504.2c-2.4,0-4.2-0.1-5.5-0.1
	c-3.4,0-3.4,0-3.6,0.1l5.8,0.1l0.1,0l2.2,0l155.2,3.1h6C3.9,505.3-35.4,504.5-50.1,504.2z"/>
</svg>
