<?xml version="1.0" encoding="utf-8"?>
<!-- Generator: Adobe Illustrator 19.0.0, SVG Export Plug-In . SVG Version: 6.00 Build 0)  -->
<svg version="1.1" id="Layer_1" xmlns="http://www.w3.org/2000/svg" xmlns:xlink="http://www.w3.org/1999/xlink" x="0px" y="0px"
	 viewBox="-954 163 11 680" style="enable-background:new -954 163 11 680;" xml:space="preserve">
<style type="text/css">
	.st0{opacity:0.8;fill:#FFFEFB;enable-background:new    ;}
</style>
<path class="st0" d="M-943.8,753.3v-0.8l-0.1,1.2L-943.8,753.3z M-943.8,745.7l-0.1-2.4v1.2L-943.8,745.7z M-943.7,722.6v-1.2h-0.2
	v1.2H-943.7z M-943.7,729.4v-1.2h-0.2v1.2H-943.7z M-943.7,735.4c-0.1-1.6,0-1.9,0-4C-944.1,731.1-944.1,735.6-943.7,735.4z
	 M-943.8,758.1l-0.2-2C-944,756.9-944.2,758.5-943.8,758.1z M-947.3,599v1.2c0.1,9,0.1,17.6,0.2,25.9v17.1c0,7.1-0.2,12.7,0,18.3
	c0.4,0.4,0.1-2.1,0.3-2.4c0.1-0.7-0.1-2.5,0.3-2.4c0.1,1.8-0.3,4.1,0.1,4.3c0.2-14.7-0.4-28.6-0.2-43.8l-0.2-3.2
	c0-3.1,0-6.1-0.1-9.2c0.1-2.9-0.1-6.5-0.1-9.6l0.1-2.8l-0.1-2.8c0-1.9,0.2-5.1-0.1-7.2C-947.6,588.3-947.3,592.7-947.3,599z
	 M-952.1,329.4c-0.3,4.1-0.4,9.3-1,12.3c-0.7,14.6-1,29.7-0.9,44.7c0.3,1.9,0.6,5.4,0.3,7.2c0.2,3.8,0.2,9.2,0.3,12l0.4,2.8
	c0.1,9.3,0.4,18.2,0.4,27.9l-0.2,1.5c-0.4,3.3,0.2,6.9,0.5,9.2c0,2.6,0.2,4.4,0.2,6.8c-0.3,0.4-0.4-1.9-0.4,0
	c0.1,1.3-0.1,3.7,0.1,4.4c0.1,1.4,0.5,1.8,0.4,3.6c0.1,1.8,0.1,3.8,0,5.6l0.5,4v24.7c0,12.2,0.1,25.8,0,34.7c0,2.6,0.1,5.3,0,7.6
	c0,1.9,0.3,1.8,0.1,3.6c0.1,4.8,0.2,9.6,0.2,14.4c0.3,6.6,0.3,13.6,0.4,20.3c0.2,6.3,0.3,12.7,0.3,19.1l0.1,1.2
	c-0.2,1.5,0.5,0.1,0.3,1.6v2.4l0.3,1.2c0.7,24.4,0.6,47.4,0.8,69v2.3c-0.3,17.2,0.2,35.5,0.1,53.4c0.5,4.6,0,13.2,0.3,18.3
	c0.1-2.2,0.2-4.3,0.3-6.4c0-11.1,0.6-25.2,0.7-37.5l-0.1-2c0.1-8.3,0.1-14,0.1-22.3c0.2-1.9,0.4-2.7,0.4-4.4
	c-0.1-1.5,0.5-0.7,0.3-2.4l0.2-2.8c0.5,21.1,0.5,42.4,0.8,66.9c0.3,1.5,0.2,4.5,0.3,6.4c-0.1,18.1,0.4,34.2,0.6,53.5
	c0.6-2.3,0.2-8.1,0.4-11.6V771c0.3-0.5-0.3-2.3,0.2-2.4v17.2c0,1.3,0.5,0.6,0.4,2c0,1.4,0.3,2.2,0,3.2c-0.4-0.6,0.2-2.5-0.4-2.4v5.6
	c0.2,0.7,0.5,0.7,0.5,2c-0.2,3.1,0.2,5-0.1,8.4c-0.3-0.5,0-2.9-0.4-2.8c0,5.3-0.1,8.1,0,12c0.4,0.4,0-2.2,0.4-2
	c0.2,5.1,0.2,10,0.2,15.4h0.6V689.7c0-1,0-1.9,0.1-2.9V163h-4.6c-0.6,2-1.2,3.9-1.9,5.7c-0.3,2.1-0.6,4-1,5.6
	c-0.2,2.5-0.5,4.3-0.7,6.8c-0.4,4.4-0.6,8.9-0.9,13.5c-0.4,13.4,0.6,26.7,1.2,39.1c-0.2,5.5-0.6,11.2-0.9,16.8
	c-0.1,2.9-0.2,5.8-0.3,8.8c-0.1,2.9-0.3,5.5-0.4,8.3c-0.4,12-0.7,24.1-0.7,36.3c0.1,2.8,0.3,5.6,0.5,8.4
	C-952.7,319.8-952.7,323.3-952.1,329.4z M-943.1,683.5l-0.1,3.1l-0.6,24.1l0.1-2.5c0.2-6.4,0.3-12.6,0.5-18.5c0-1,0-1.9,0.1-2.9
	V683.5z"/>
</svg>
