<?xml version="1.0" encoding="utf-8"?>
<!-- Generator: Adobe Illustrator 19.0.0, SVG Export Plug-In . SVG Version: 6.00 Build 0)  -->
<svg version="1.1" id="Layer_1" xmlns="http://www.w3.org/2000/svg" xmlns:xlink="http://www.w3.org/1999/xlink" x="0px" y="0px"
	 viewBox="-499 498.5 825 8" style="enable-background:new -499 498.5 825 8;" xml:space="preserve">
<style type="text/css">
	.st0{opacity:0.8;fill:#FFFEFB;enable-background:new    ;}
</style>
<path class="st0" d="M204.5,500.3c-22.7-0.7-43.4-1.3-62.4-1.8h-3.2l68.8,2L204.5,500.3z M-499,498.5v3c3.6,0.2,7.3,0.4,11.1,0.6
	c18,0.5,36-0.3,52.7-0.8c7.4,0.3,15,0.8,22.6,1.1c3.9,0.2,7.9,0.3,11.8,0.4c3.9,0.2,7.4,0.4,11.2,0.5c16.1,0.6,32.5,0.9,48.9,1.1
	c3.8-0.1,7.6-0.2,11.3-0.3c10.1-0.1,14.8,0,23.1-0.5c5.5,0.4,12.5,0.5,16.6,1.1c19.7,0.9,39.9,1.4,60.2,1.4c2.5,0.3,7.3,0,9.7,0.3
	c5.1-0.2,12.3-0.1,16.2-0.2l3.7-0.4c12.5,0,24.5-0.2,37.6-0.1l2,0.2c4.5,0.4,9.3-0.1,12.4-0.3c3.5,0,5.9-0.1,9.2-0.1
	c0.5,0.3-2.6,0.4,0,0.4c1.8-0.1,5,0.2,5.9-0.1c1.9-0.1,2.5-0.4,4.8-0.4c2.5-0.1,5.1,0,7.5,0.1l5.4-0.5c9.9,0.1,21.4,0.2,33.3,0.3
	c16.4,0.2,34.9,0.2,46.7,0.4c3.6,0.1,7.2-0.1,10.3,0.1c2.6,0,2.4-0.3,4.9-0.1c6.4-0.1,12.9-0.1,19.4,0c8.9-0.2,18.4-0.1,27.4-0.2
	c8.5-0.1,17.2-0.1,25.8-0.1l1.6-0.1c2,0.2,0.1-0.5,2.2-0.3l3.3,0l1.6-0.3c32.9-0.4,63.9-0.1,93,0l3.3,0c23.2,0.5,47.8,0.2,72,0.5
	c6.2-0.5,17.8,0.2,24.7-0.1c-2.9-0.1-5.8-0.2-8.6-0.4c-15-0.1-33.9-0.9-50.5-1.1l-2.7,0.1c-11.2-0.2-18.9-0.2-30.1-0.4
	c-2.6-0.2-3.6-0.5-5.9-0.5c-2.1,0.1-0.9-0.5-3.3-0.3l-3.7-0.3c28.4-0.3,57.1,0,90.2,0c2-0.3,6-0.1,8.6-0.2c24.4,0.3,46.1,0,72.1,0.1
	c-3.1-0.6-10.9-0.3-15.6-0.6l-15.6-0.1c-0.7-0.3-3,0.3-3.3-0.3c8.5,0.1,15.9,0.2,23.2,0.2c1.7,0,0.8-0.5,2.7-0.4s3-0.2,4.3,0
	c-0.8,0.4-3.4-0.2-3.3,0.4l7.6,0.1c0.9-0.2,0.9-0.5,2.7-0.5c1,0.1,2,0.1,2.9,0.1v-2.7H-499z M141.5,503.2
	c-7.6,0.2-15.1-0.1-24.7-0.2c-3.7,0-9-0.1-15.6-0.1l-7.5-0.1c-11.2,0-22.8-0.1-34.9-0.1l-1.6,0c-8.6-0.1-14.4,0.1-22-0.4
	c2.8-0.3,7.1,0,9.7,0l3.7-0.1l3.8,0.1c4.1,0,9-0.1,12.9,0c4.1-0.1,8.2-0.1,12.3,0l4.3-0.2c20.6,0.4,39.3,0,59.1,0.3
	c-0.3,0.4-3.4-0.1-5.9,0c-0.2,0.4,2.3,0.2,3.2,0.4C138.7,503.1,142,502.8,141.5,503.2z M223.8,500.7l-1.6,0v-0.2l1.6,0L223.8,500.7z
	 M233,500.8l-1.6,0l0-0.2l1.6,0V500.8z M235.7,500.6c2.8,0,3.1,0.2,5.4,0C241.4,501,235.3,501,235.7,500.6z M253.4,501l-1.6,0
	l3.2-0.1L253.4,501z M264.1,501l1.1,0l0.5,0.1L264.1,501z M268.9,501.2l2.7-0.2C272.2,501.4,270,501.2,268.9,501.2z"/>
</svg>
